<?xml version="1.0" encoding="UTF-8"?>
<svg id="Layer_2" data-name="Layer 2" xmlns="http://www.w3.org/2000/svg" xmlns:xlink="http://www.w3.org/1999/xlink" viewBox="0 0 1629.56 171.5">
  <defs>
    <style>
      .cls-1 {
        fill: url(#linear-gradient-15);
      }

      .cls-2 {
        fill: url(#linear-gradient-13);
      }

      .cls-3 {
        fill: none;
      }

      .cls-3, .cls-4 {
        stroke: #fff;
        stroke-linecap: round;
        stroke-linejoin: bevel;
        stroke-width: 3px;
      }

      .cls-5 {
        letter-spacing: -.04em;
      }

      .cls-5, .cls-6, .cls-7, .cls-8, .cls-9, .cls-10, .cls-11 {
        font-family: NewHero-SemiBold, 'New Hero';
        font-size: 133px;
        font-weight: 600;
      }

      .cls-12 {
        fill: url(#linear-gradient-2);
      }

      .cls-13 {
        fill: url(#linear-gradient-25);
      }

      .cls-14 {
        fill: url(#linear-gradient-10);
      }

      .cls-15 {
        fill: url(#linear-gradient-12);
      }

      .cls-6 {
        letter-spacing: -.05em;
      }

      .cls-16, .cls-4, .cls-17 {
        fill: #fff;
      }

      .cls-18 {
        fill: url(#linear-gradient-4);
      }

      .cls-19 {
        fill: #5b6bf8;
      }

      .cls-20 {
        fill: url(#linear-gradient-3);
      }

      .cls-21 {
        fill: url(#linear-gradient-5);
      }

      .cls-22 {
        fill: url(#linear-gradient-22);
      }

      .cls-23 {
        fill: url(#linear-gradient-24);
      }

      .cls-24 {
        font-family: AvantGarde-Demi, 'ITC Avant Garde Demi';
        font-weight: 300;
      }

      .cls-24, .cls-17 {
        font-size: 150px;
      }

      .cls-25 {
        fill: url(#linear-gradient-8);
      }

      .cls-26 {
        fill: url(#linear-gradient-14);
      }

      .cls-27 {
        fill: url(#linear-gradient-20);
      }

      .cls-28 {
        fill: url(#linear-gradient-17);
      }

      .cls-29 {
        fill: url(#linear-gradient-7);
      }

      .cls-30 {
        fill: url(#linear-gradient-9);
      }

      .cls-31 {
        fill: url(#linear-gradient-11);
      }

      .cls-32 {
        fill: url(#linear-gradient-19);
      }

      .cls-33 {
        fill: url(#linear-gradient-6);
      }

      .cls-34 {
        letter-spacing: 0em;
      }

      .cls-35 {
        fill: url(#linear-gradient-21);
      }

      .cls-7 {
        letter-spacing: -.08em;
      }

      .cls-17 {
        font-family: SNPro-Regular, 'SN Pro';
        font-variation-settings: 'wght' 400;
      }

      .cls-8 {
        letter-spacing: -.01em;
      }

      .cls-9 {
        letter-spacing: -.06em;
      }

      .cls-36 {
        fill: url(#linear-gradient-16);
      }

      .cls-37 {
        fill: url(#linear-gradient);
      }

      .cls-10 {
        letter-spacing: -.07em;
      }

      .cls-38 {
        fill: url(#linear-gradient-23);
      }

      .cls-11 {
        letter-spacing: -.05em;
      }

      .cls-39 {
        fill: url(#linear-gradient-18);
      }
    </style>
    <linearGradient id="linear-gradient" x1="910.63" y1="79.93" x2="1660.93" y2="79.93" gradientUnits="userSpaceOnUse">
      <stop offset="0" stop-color="#14009f"/>
      <stop offset=".1" stop-color="#209"/>
      <stop offset=".33" stop-color="#3f008d"/>
      <stop offset=".56" stop-color="#540085"/>
      <stop offset=".78" stop-color="#600080"/>
      <stop offset="1" stop-color="#65007f"/>
    </linearGradient>
    <linearGradient id="linear-gradient-2" x1="910.63" y1="89.53" x2="1660.93" y2="89.53" xlink:href="#linear-gradient"/>
    <linearGradient id="linear-gradient-3" x1="910.63" y1="86.46" x2="1660.93" y2="86.46" xlink:href="#linear-gradient"/>
    <linearGradient id="linear-gradient-4" y1="93.66" x2="1660.93" y2="93.66" xlink:href="#linear-gradient"/>
    <linearGradient id="linear-gradient-5" x1="910.63" y1="94.33" x2="1660.93" y2="94.33" xlink:href="#linear-gradient"/>
    <linearGradient id="linear-gradient-6" x1="910.63" y1="128.53" x2="1660.93" y2="128.53" xlink:href="#linear-gradient"/>
    <linearGradient id="linear-gradient-7" x1="910.63" y1="106.93" x2="1660.93" y2="106.93" xlink:href="#linear-gradient"/>
    <linearGradient id="linear-gradient-8" y1="116.52" x2="1660.93" y2="116.52" xlink:href="#linear-gradient"/>
    <linearGradient id="linear-gradient-9" y1="116" x2="1660.93" y2="116" xlink:href="#linear-gradient"/>
    <linearGradient id="linear-gradient-10" y1="116.11" x2="1660.93" y2="116.11" xlink:href="#linear-gradient"/>
    <linearGradient id="linear-gradient-11" y1="72.06" x2="1660.93" y2="72.06" xlink:href="#linear-gradient"/>
    <linearGradient id="linear-gradient-12" y1="93.66" x2="1660.93" y2="93.66" xlink:href="#linear-gradient"/>
    <linearGradient id="linear-gradient-13" y1="93.66" x2="1660.93" y2="93.66" xlink:href="#linear-gradient"/>
    <linearGradient id="linear-gradient-14" x1="910.63" y1="94.33" x2="1660.93" y2="94.33" xlink:href="#linear-gradient"/>
    <linearGradient id="linear-gradient-15" y1="86.46" x2="1660.93" y2="86.46" xlink:href="#linear-gradient"/>
    <linearGradient id="linear-gradient-16" y1="96.94" x2="1660.93" y2="96.94" xlink:href="#linear-gradient"/>
    <linearGradient id="linear-gradient-17" y1="118.89" x2="1660.93" y2="118.89" xlink:href="#linear-gradient"/>
    <linearGradient id="linear-gradient-18" y1="93.5" x2="1660.93" y2="93.5" xlink:href="#linear-gradient"/>
    <linearGradient id="linear-gradient-19" x1="910.63" y1="93.66" x2="1660.93" y2="93.66" xlink:href="#linear-gradient"/>
    <linearGradient id="linear-gradient-20" x1="910.63" y1="116.38" x2="1660.93" y2="116.38" xlink:href="#linear-gradient"/>
    <linearGradient id="linear-gradient-21" y1="93.66" x2="1660.93" y2="93.66" xlink:href="#linear-gradient"/>
    <linearGradient id="linear-gradient-22" x1="910.63" y1="86.46" x2="1660.93" y2="86.46" xlink:href="#linear-gradient"/>
    <linearGradient id="linear-gradient-23" x1="910.63" y1="94.33" x2="1660.93" y2="94.33" xlink:href="#linear-gradient"/>
    <linearGradient id="linear-gradient-24" x1="910.63" y1="93.49" x2="1660.93" y2="93.49" xlink:href="#linear-gradient"/>
    <linearGradient id="linear-gradient-25" y1="73.21" x2="1660.93" y2="73.21" xlink:href="#linear-gradient"/>
  </defs>
  <g id="Layer_8" data-name="Layer 8">
    <g id="Layer_9_copy" data-name="Layer 9 copy">
      <g id="Layer_4_copy" data-name="Layer 4 copy">
        <rect class="cls-19" y="28.35" width="129.15" height="129.15" rx="16.34" ry="16.34"/>
      </g>
      <g id="Layer_5_copy" data-name="Layer 5 copy">
        <path class="cls-3" d="M19.2,118.7s16.56-51.44,31.68-51.55c15.27-.11,17.53,50.44,32.76,51.55,14.43,1.05,26.31-51.55,26.31-51.55"/>
      </g>
      <g id="Layer_6_copy_2" data-name="Layer 6 copy 2">
        <circle class="cls-4" cx="19.71" cy="117.58" r="3.11"/>
      </g>
      <g id="Layer_6_copy_2-2" data-name="Layer 6 copy 2">
        <circle class="cls-4" cx="109.67" cy="67.66" r="3.11"/>
      </g>
    </g>
    <g>
      <path d="M933.63,28.63s-.02,0-.04,0h.08s-.03,0-.04,0Z"/>
      <path d="M1091.13,157.78s.03,0,.04,0h-.06s.01,0,.02,0Z"/>
      <path d="M928.6,30.66c-1.15,1.35-1.73,3.38-1.73,6.08v87.3c0,2.3.57,4.08,1.73,5.33,1.15,1.25,2.82,1.88,5.02,1.88,2.4,0,4.15-.63,5.25-1.88,1.1-1.25,1.65-3.02,1.65-5.33v-18.9l6.75-6.6,27.6,28.65c1.4,1.3,2.75,2.33,4.05,3.08,1.3.75,2.55,1.02,3.75.83,1.2-.2,2.3-.85,3.3-1.95.9-1,1.43-2.07,1.58-3.23.15-1.15-.05-2.35-.6-3.6-.55-1.25-1.38-2.42-2.48-3.53l-26.96-29.1-3.34,3.3v-6.9l3.34,3.6,22.31-22.05c1.2-1.3,2-2.55,2.4-3.75.4-1.2.45-2.35.15-3.45-.3-1.1-.85-2.05-1.65-2.85-1.7-1.7-3.52-2.22-5.48-1.58-1.95.65-3.58,1.68-4.88,3.08l-29.85,29.1v-51.45c0-2.7-.58-4.72-1.73-6.08-1.14-1.34-2.86-2.02-5.14-2.02h-.08c-2.18,0-3.85.68-4.99,2.02Z"/>
      <path class="cls-37" d="M928.6,30.66c-1.15,1.35-1.73,3.38-1.73,6.08v87.3c0,2.3.57,4.08,1.73,5.33,1.15,1.25,2.82,1.88,5.02,1.88,2.4,0,4.15-.63,5.25-1.88,1.1-1.25,1.65-3.02,1.65-5.33v-18.9l6.75-6.6,27.6,28.65c1.4,1.3,2.75,2.33,4.05,3.08,1.3.75,2.55,1.02,3.75.83,1.2-.2,2.3-.85,3.3-1.95.9-1,1.43-2.07,1.58-3.23.15-1.15-.05-2.35-.6-3.6-.55-1.25-1.38-2.42-2.48-3.53l-26.96-29.1-3.34,3.3v-6.9l3.34,3.6,22.31-22.05c1.2-1.3,2-2.55,2.4-3.75.4-1.2.45-2.35.15-3.45-.3-1.1-.85-2.05-1.65-2.85-1.7-1.7-3.52-2.22-5.48-1.58-1.95.65-3.58,1.68-4.88,3.08l-29.85,29.1v-51.45c0-2.7-.58-4.72-1.73-6.08-1.14-1.34-2.86-2.02-5.14-2.02h-.08c-2.18,0-3.85.68-4.99,2.02Z"/>
      <polygon points="954.18 92.98 957.52 89.69 954.18 86.08 954.18 92.98"/>
      <polygon class="cls-12" points="954.18 92.98 957.52 89.69 954.18 86.08 954.18 92.98"/>
      <path d="M1054.38,85.48c-.79.23-1.61.44-2.43.65.01.43.04.86.03,1.3l2.4-1.95Z"/>
      <path class="cls-20" d="M1054.38,85.48c-.79.23-1.61.44-2.43.65.01.43.04.86.03,1.3l2.4-1.95Z"/>
      <path d="M1048.83,60.13c-5-2.9-10.9-4.35-17.7-4.35-5.2,0-9.97.9-14.32,2.7s-8.15,4.4-11.4,7.8c-3.25,3.4-5.75,7.4-7.5,12-1.75,4.6-2.62,9.75-2.62,15.45,0,7.8,1.52,14.53,4.57,20.17,3.05,5.65,7.4,10,13.05,13.05,5.65,3.05,12.42,4.57,20.32,4.57,4.2,0,8.37-.65,12.52-1.95,4.15-1.3,7.73-3.05,10.73-5.25,1.4-.9,2.33-1.92,2.77-3.08.45-1.15.53-2.27.23-3.38-.3-1.1-.88-2-1.73-2.7-.85-.7-1.85-1.1-3-1.2-1.15-.1-2.43.25-3.82,1.05-3.1,2-6.03,3.38-8.77,4.12-2.75.75-5.68,1.12-8.78,1.12-4.9,0-9.2-.95-12.9-2.85-3.7-1.9-6.58-4.82-8.62-8.78-1.34-2.58-2.21-5.62-2.63-9.12-.98.01-1.98.03-2.99.04l.3-10.5h2.68c.31-3.93,1.13-7.41,2.49-10.43,1.65-3.65,4.1-6.47,7.35-8.47,3.25-2,7.27-3,12.07-3,6.2,0,11.25,1.8,15.15,5.4,3.62,3.35,5.5,7.87,5.67,13.55.82-.21,1.64-.42,2.43-.65l-2.4,1.95c0-.45-.02-.87-.03-1.3-3.75.96-7.8,1.68-12.19,2.13-5.35.55-10.85.83-16.5.83h-14.04c-.06.83-.11,1.68-.13,2.55l-.15,1.95c-.04,2.12.07,4.1.29,5.96,6.18-.09,11.74-.2,16.66-.33,5.7-.15,10.9-.38,15.6-.68,4.7-.3,9.15-.9,13.35-1.8,2-.4,3.75-.87,5.25-1.42,1.5-.55,2.65-1.37,3.45-2.47.8-1.1,1.2-2.6,1.2-4.5,0-6.1-1.4-11.6-4.2-16.5-2.8-4.9-6.7-8.8-11.7-11.7Z"/>
      <path class="cls-18" d="M1048.83,60.13c-5-2.9-10.9-4.35-17.7-4.35-5.2,0-9.97.9-14.32,2.7s-8.15,4.4-11.4,7.8c-3.25,3.4-5.75,7.4-7.5,12-1.75,4.6-2.62,9.75-2.62,15.45,0,7.8,1.52,14.53,4.57,20.17,3.05,5.65,7.4,10,13.05,13.05,5.65,3.05,12.42,4.57,20.32,4.57,4.2,0,8.37-.65,12.52-1.95,4.15-1.3,7.73-3.05,10.73-5.25,1.4-.9,2.33-1.92,2.77-3.08.45-1.15.53-2.27.23-3.38-.3-1.1-.88-2-1.73-2.7-.85-.7-1.85-1.1-3-1.2-1.15-.1-2.43.25-3.82,1.05-3.1,2-6.03,3.38-8.77,4.12-2.75.75-5.68,1.12-8.78,1.12-4.9,0-9.2-.95-12.9-2.85-3.7-1.9-6.58-4.82-8.62-8.78-1.34-2.58-2.21-5.62-2.63-9.12-.98.01-1.98.03-2.99.04l.3-10.5h2.68c.31-3.93,1.13-7.41,2.49-10.43,1.65-3.65,4.1-6.47,7.35-8.47,3.25-2,7.27-3,12.07-3,6.2,0,11.25,1.8,15.15,5.4,3.62,3.35,5.5,7.87,5.67,13.55.82-.21,1.64-.42,2.43-.65l-2.4,1.95c0-.45-.02-.87-.03-1.3-3.75.96-7.8,1.68-12.19,2.13-5.35.55-10.85.83-16.5.83h-14.04c-.06.83-.11,1.68-.13,2.55l-.15,1.95c-.04,2.12.07,4.1.29,5.96,6.18-.09,11.74-.2,16.66-.33,5.7-.15,10.9-.38,15.6-.68,4.7-.3,9.15-.9,13.35-1.8,2-.4,3.75-.87,5.25-1.42,1.5-.55,2.65-1.37,3.45-2.47.8-1.1,1.2-2.6,1.2-4.5,0-6.1-1.4-11.6-4.2-16.5-2.8-4.9-6.7-8.8-11.7-11.7Z"/>
      <path d="M1009.08,91.63c.02-.87.07-1.72.13-2.55h-2.68l-.3,10.5c1.01-.01,2.01-.03,2.99-.04-.22-1.86-.33-3.84-.29-5.96l.15-1.95Z"/>
      <path class="cls-21" d="M1009.08,91.63c.02-.87.07-1.72.13-2.55h-2.68l-.3,10.5c1.01-.01,2.01-.03,2.99-.04-.22-1.86-.33-3.84-.29-5.96l.15-1.95Z"/>
      <polygon points="1103.13 125.53 1101.81 128.48 1103.13 131.53 1103.13 125.53"/>
      <polygon class="cls-33" points="1103.13 125.53 1101.81 128.48 1103.13 131.53 1103.13 125.53"/>
      <path d="M1101.85,154.26c1.65-1.25,3.17-2.9,4.58-4.95,1.4-2.05,2.75-4.58,4.05-7.58l33-76.05c.8-1.7,1.1-3.27.9-4.72-.2-1.45-.8-2.62-1.8-3.53-1-.9-2.35-1.35-4.05-1.35-2,0-3.55.4-4.65,1.2-1.1.8-2.05,2.25-2.85,4.35l-21.59,52.33,2.09,5.12h-4.2l2.11-5.12-21.31-52.33c-.8-2.1-1.73-3.55-2.77-4.35-1.05-.8-2.48-1.2-4.28-1.2-2.1,0-3.73.45-4.88,1.35-1.15.9-1.85,2.08-2.1,3.53-.25,1.45-.03,3.07.67,4.88l27.03,62.64,1.32-2.94v6l-1.32-3.06-4.53,10.11c-1.1,2.5-2.17,4.3-3.23,5.4-1.05,1.1-2.13,1.65-3.23,1.65s-2.23.2-3.38.6c-1.15.4-2.05,1.02-2.7,1.88-.65.85-1.03,1.92-1.12,3.23-.1,1.9.55,3.45,1.95,4.65,1.39,1.2,3.24,1.79,5.53,1.8h.06c1.98,0,3.84-.28,5.58-.82,1.75-.55,3.45-1.45,5.1-2.7Z"/>
      <path class="cls-29" d="M1101.85,154.26c1.65-1.25,3.17-2.9,4.58-4.95,1.4-2.05,2.75-4.58,4.05-7.58l33-76.05c.8-1.7,1.1-3.27.9-4.72-.2-1.45-.8-2.62-1.8-3.53-1-.9-2.35-1.35-4.05-1.35-2,0-3.55.4-4.65,1.2-1.1.8-2.05,2.25-2.85,4.35l-21.59,52.33,2.09,5.12h-4.2l2.11-5.12-21.31-52.33c-.8-2.1-1.73-3.55-2.77-4.35-1.05-.8-2.48-1.2-4.28-1.2-2.1,0-3.73.45-4.88,1.35-1.15.9-1.85,2.08-2.1,3.53-.25,1.45-.03,3.07.67,4.88l27.03,62.64,1.32-2.94v6l-1.32-3.06-4.53,10.11c-1.1,2.5-2.17,4.3-3.23,5.4-1.05,1.1-2.13,1.65-3.23,1.65s-2.23.2-3.38.6c-1.15.4-2.05,1.02-2.7,1.88-.65.85-1.03,1.92-1.12,3.23-.1,1.9.55,3.45,1.95,4.65,1.39,1.2,3.24,1.79,5.53,1.8h.06c1.98,0,3.84-.28,5.58-.82,1.75-.55,3.45-1.45,5.1-2.7Z"/>
      <polygon points="1111.53 119.08 1109.44 113.96 1107.33 119.08 1111.53 119.08"/>
      <polygon class="cls-25" points="1111.53 119.08 1109.44 113.96 1107.33 119.08 1111.53 119.08"/>
      <polygon points="1188.47 118.78 1186.69 113.22 1184.87 118.78 1188.47 118.78"/>
      <polygon class="cls-30" points="1188.47 118.78 1186.69 113.22 1184.87 118.78 1188.47 118.78"/>
      <polygon points="1236.47 118.78 1234.76 113.44 1233.02 118.78 1236.47 118.78"/>
      <polygon class="cls-14" points="1236.47 118.78 1234.76 113.44 1233.02 118.78 1236.47 118.78"/>
      <polygon points="1206.92 66.73 1210.46 77.38 1213.97 66.73 1206.92 66.73"/>
      <polygon class="cls-31" points="1206.92 66.73 1210.46 77.38 1213.97 66.73 1206.92 66.73"/>
      <path d="M1262.8,57.43c-.95-.9-2.38-1.35-4.27-1.35-1.2,0-2.5.35-3.9,1.05-1.4.7-2.4,2.15-3,4.35l-16.87,51.96,1.72,5.34h-3.45l1.73-5.34-16.73-52.11c-.5-1.8-1.38-3.12-2.62-3.98-1.25-.85-2.78-1.27-4.58-1.27-1.7,0-3.15.43-4.35,1.27-1.2.85-2.15,2.17-2.85,3.98l-16.94,51.89,1.78,5.56h-3.6l1.81-5.56-16.51-51.44c-.6-2.3-1.58-3.82-2.92-4.57s-2.62-1.12-3.83-1.12c-2.7,0-4.63.88-5.77,2.62-1.15,1.75-1.23,4.12-.23,7.12l20.25,59.1c.8,2.3,1.95,3.93,3.45,4.88s3.2,1.42,5.1,1.42c2.1,0,3.88-.52,5.33-1.58,1.45-1.05,2.52-2.62,3.23-4.72l15.69-47.56-3.54-10.64h7.05l-3.51,10.64,15.81,47.56c.7,2.1,1.82,3.67,3.38,4.72,1.55,1.05,3.27,1.58,5.17,1.58s3.62-.5,5.17-1.5c1.55-1,2.67-2.6,3.38-4.8l20.25-59.1c.6-1.7.85-3.3.75-4.8-.1-1.5-.63-2.7-1.58-3.6Z"/>
      <path class="cls-15" d="M1262.8,57.43c-.95-.9-2.38-1.35-4.27-1.35-1.2,0-2.5.35-3.9,1.05-1.4.7-2.4,2.15-3,4.35l-16.87,51.96,1.72,5.34h-3.45l1.73-5.34-16.73-52.11c-.5-1.8-1.38-3.12-2.62-3.98-1.25-.85-2.78-1.27-4.58-1.27-1.7,0-3.15.43-4.35,1.27-1.2.85-2.15,2.17-2.85,3.98l-16.94,51.89,1.78,5.56h-3.6l1.81-5.56-16.51-51.44c-.6-2.3-1.58-3.82-2.92-4.57s-2.62-1.12-3.83-1.12c-2.7,0-4.63.88-5.77,2.62-1.15,1.75-1.23,4.12-.23,7.12l20.25,59.1c.8,2.3,1.95,3.93,3.45,4.88s3.2,1.42,5.1,1.42c2.1,0,3.88-.52,5.33-1.58,1.45-1.05,2.52-2.62,3.23-4.72l15.69-47.56-3.54-10.64h7.05l-3.51,10.64,15.81,47.56c.7,2.1,1.82,3.67,3.38,4.72,1.55,1.05,3.27,1.58,5.17,1.58s3.62-.5,5.17-1.5c1.55-1,2.67-2.6,3.38-4.8l20.25-59.1c.6-1.7.85-3.3.75-4.8-.1-1.5-.63-2.7-1.58-3.6Z"/>
      <path d="M1327.67,60.13c-5-2.9-10.9-4.35-17.7-4.35-5.2,0-9.97.9-14.33,2.7-4.35,1.8-8.15,4.4-11.4,7.8-3.25,3.4-5.75,7.4-7.5,12-1.75,4.6-2.62,9.75-2.62,15.45,0,7.8,1.52,14.53,4.58,20.17,3.05,5.65,7.4,10,13.05,13.05,5.65,3.05,12.42,4.57,20.33,4.57,4.2,0,8.37-.65,12.52-1.95,4.15-1.3,7.73-3.05,10.73-5.25,1.4-.9,2.32-1.92,2.77-3.08.45-1.15.53-2.27.23-3.38-.3-1.1-.88-2-1.73-2.7-.85-.7-1.85-1.1-3-1.2-1.15-.1-2.43.25-3.83,1.05-3.1,2-6.03,3.38-8.77,4.12-2.75.75-5.68,1.12-8.78,1.12-4.9,0-9.2-.95-12.9-2.85-3.7-1.9-6.58-4.82-8.62-8.78-1.34-2.58-2.21-5.62-2.63-9.12-.98.01-1.98.03-2.99.04l.3-10.5h2.68c.31-3.93,1.13-7.41,2.49-10.43,1.65-3.65,4.1-6.47,7.35-8.47,3.25-2,7.28-3,12.08-3,6.2,0,11.25,1.8,15.15,5.4,3.62,3.35,5.5,7.87,5.67,13.55.82-.21,1.64-.42,2.43-.65l-2.4,1.95c0-.45-.02-.87-.03-1.3-3.75.96-7.8,1.68-12.19,2.13-5.35.55-10.85.83-16.5.83h-14.04c-.06.83-.11,1.68-.13,2.55l-.15,1.95c-.03,2.12.07,4.1.29,5.96,6.18-.09,11.74-.2,16.66-.33,5.7-.15,10.9-.38,15.6-.68,4.7-.3,9.15-.9,13.35-1.8,2-.4,3.75-.87,5.25-1.42,1.5-.55,2.65-1.37,3.45-2.47.8-1.1,1.2-2.6,1.2-4.5,0-6.1-1.4-11.6-4.2-16.5-2.8-4.9-6.7-8.8-11.7-11.7Z"/>
      <path class="cls-2" d="M1327.67,60.13c-5-2.9-10.9-4.35-17.7-4.35-5.2,0-9.97.9-14.33,2.7-4.35,1.8-8.15,4.4-11.4,7.8-3.25,3.4-5.75,7.4-7.5,12-1.75,4.6-2.62,9.75-2.62,15.45,0,7.8,1.52,14.53,4.58,20.17,3.05,5.65,7.4,10,13.05,13.05,5.65,3.05,12.42,4.57,20.33,4.57,4.2,0,8.37-.65,12.52-1.95,4.15-1.3,7.73-3.05,10.73-5.25,1.4-.9,2.32-1.92,2.77-3.08.45-1.15.53-2.27.23-3.38-.3-1.1-.88-2-1.73-2.7-.85-.7-1.85-1.1-3-1.2-1.15-.1-2.43.25-3.83,1.05-3.1,2-6.03,3.38-8.77,4.12-2.75.75-5.68,1.12-8.78,1.12-4.9,0-9.2-.95-12.9-2.85-3.7-1.9-6.58-4.82-8.62-8.78-1.34-2.58-2.21-5.62-2.63-9.12-.98.01-1.98.03-2.99.04l.3-10.5h2.68c.31-3.93,1.13-7.41,2.49-10.43,1.65-3.65,4.1-6.47,7.35-8.47,3.25-2,7.28-3,12.08-3,6.2,0,11.25,1.8,15.15,5.4,3.62,3.35,5.5,7.87,5.67,13.55.82-.21,1.64-.42,2.43-.65l-2.4,1.95c0-.45-.02-.87-.03-1.3-3.75.96-7.8,1.68-12.19,2.13-5.35.55-10.85.83-16.5.83h-14.04c-.06.83-.11,1.68-.13,2.55l-.15,1.95c-.03,2.12.07,4.1.29,5.96,6.18-.09,11.74-.2,16.66-.33,5.7-.15,10.9-.38,15.6-.68,4.7-.3,9.15-.9,13.35-1.8,2-.4,3.75-.87,5.25-1.42,1.5-.55,2.65-1.37,3.45-2.47.8-1.1,1.2-2.6,1.2-4.5,0-6.1-1.4-11.6-4.2-16.5-2.8-4.9-6.7-8.8-11.7-11.7Z"/>
      <path d="M1287.92,91.63c.02-.87.07-1.72.13-2.55h-2.68l-.3,10.5c1.01-.01,2.01-.03,2.99-.04-.22-1.86-.33-3.84-.29-5.96l.15-1.95Z"/>
      <path class="cls-26" d="M1287.92,91.63c.02-.87.07-1.72.13-2.55h-2.68l-.3,10.5c1.01-.01,2.01-.03,2.99-.04-.22-1.86-.33-3.84-.29-5.96l.15-1.95Z"/>
      <path d="M1333.22,85.48c-.79.23-1.61.44-2.43.65.01.43.04.86.03,1.3l2.4-1.95Z"/>
      <path class="cls-1" d="M1333.22,85.48c-.79.23-1.61.44-2.43.65.01.43.04.86.03,1.3l2.4-1.95Z"/>
      <polygon points="1403.12 101.23 1403.57 93.73 1401.47 92.65 1401.47 100.5 1403.12 101.23"/>
      <polygon class="cls-36" points="1403.12 101.23 1403.57 93.73 1401.47 92.65 1401.47 100.5 1403.12 101.23"/>
      <path d="M1401.77,116.83v4.11c.57-1.25,1.03-2.61,1.35-4.11h-1.35Z"/>
      <path class="cls-28" d="M1401.77,116.83v4.11c.57-1.25,1.03-2.61,1.35-4.11h-1.35Z"/>
      <path d="M1401.92,58.63c-4.3-2.1-9.55-3.15-15.75-3.15-2.1-.1-4.58.13-7.42.67-2.85.55-5.75,1.5-8.7,2.85-2.95,1.35-5.68,3.18-8.17,5.47-1.3,1-2.13,2.13-2.48,3.38-.35,1.25-.35,2.43,0,3.53.35,1.1.98,2,1.88,2.7.9.7,1.97,1.05,3.23,1.05s2.57-.55,3.97-1.65c2.2-1.9,4.37-3.38,6.53-4.42,2.15-1.05,4.15-1.77,6-2.17,1.85-.4,3.47-.6,4.88-.6,4.9,0,8.72,1.35,11.47,4.05,2.75,2.7,4.12,6.95,4.12,12.75v9.57l2.1,1.08-.45,7.5-1.65-.73v3.43c0,3-.6,5.6-1.8,7.8-1.2,2.2-2.78,4.03-4.72,5.48-1.95,1.45-4.08,2.5-6.38,3.15-2.3.65-4.45.98-6.45.98-4.7,0-8.4-1.22-11.1-3.68-2.7-2.45-4.05-5.57-4.05-9.38,0-2.7.77-5.05,2.33-7.05,1.55-2,3.72-3.52,6.53-4.58,2.8-1.05,6.07-1.45,9.82-1.2,3.75.25,7.77,1.38,12.08,3.38l3.75,1.67v-7.85l-2.85-1.47c-5.3-2.9-10.55-4.5-15.75-4.8-5.2-.3-9.93.45-14.17,2.25-4.25,1.8-7.7,4.42-10.35,7.88-2.65,3.45-3.97,7.42-3.97,11.92-.1,4.1.87,7.9,2.92,11.4,2.05,3.5,4.97,6.33,8.78,8.47,3.8,2.15,8.25,3.22,13.35,3.22,4,0,7.6-.45,10.8-1.35,3.2-.9,5.95-2.42,8.25-4.58,1.37-1.28,2.46-2.84,3.3-4.66v-4.11h1.35c-.33,1.5-.78,2.87-1.35,4.11v3.84c0,1.3.25,2.45.75,3.45.5,1,1.25,1.75,2.25,2.25,1,.5,2.25.75,3.75.75,2.1,0,3.7-.6,4.8-1.8,1.1-1.2,1.65-2.8,1.65-4.8v-39.9c0-6.7-1.1-12.2-3.3-16.5-2.2-4.3-5.45-7.5-9.75-9.6Z"/>
      <path class="cls-39" d="M1401.92,58.63c-4.3-2.1-9.55-3.15-15.75-3.15-2.1-.1-4.58.13-7.42.67-2.85.55-5.75,1.5-8.7,2.85-2.95,1.35-5.68,3.18-8.17,5.47-1.3,1-2.13,2.13-2.48,3.38-.35,1.25-.35,2.43,0,3.53.35,1.1.98,2,1.88,2.7.9.7,1.97,1.05,3.23,1.05s2.57-.55,3.97-1.65c2.2-1.9,4.37-3.38,6.53-4.42,2.15-1.05,4.15-1.77,6-2.17,1.85-.4,3.47-.6,4.88-.6,4.9,0,8.72,1.35,11.47,4.05,2.75,2.7,4.12,6.95,4.12,12.75v9.57l2.1,1.08-.45,7.5-1.65-.73v3.43c0,3-.6,5.6-1.8,7.8-1.2,2.2-2.78,4.03-4.72,5.48-1.95,1.45-4.08,2.5-6.38,3.15-2.3.65-4.45.98-6.45.98-4.7,0-8.4-1.22-11.1-3.68-2.7-2.45-4.05-5.57-4.05-9.38,0-2.7.77-5.05,2.33-7.05,1.55-2,3.72-3.52,6.53-4.58,2.8-1.05,6.07-1.45,9.82-1.2,3.75.25,7.77,1.38,12.08,3.38l3.75,1.67v-7.85l-2.85-1.47c-5.3-2.9-10.55-4.5-15.75-4.8-5.2-.3-9.93.45-14.17,2.25-4.25,1.8-7.7,4.42-10.35,7.88-2.65,3.45-3.97,7.42-3.97,11.92-.1,4.1.87,7.9,2.92,11.4,2.05,3.5,4.97,6.33,8.78,8.47,3.8,2.15,8.25,3.22,13.35,3.22,4,0,7.6-.45,10.8-1.35,3.2-.9,5.95-2.42,8.25-4.58,1.37-1.28,2.46-2.84,3.3-4.66v-4.11h1.35c-.33,1.5-.78,2.87-1.35,4.11v3.84c0,1.3.25,2.45.75,3.45.5,1,1.25,1.75,2.25,2.25,1,.5,2.25.75,3.75.75,2.1,0,3.7-.6,4.8-1.8,1.1-1.2,1.65-2.8,1.65-4.8v-39.9c0-6.7-1.1-12.2-3.3-16.5-2.2-4.3-5.45-7.5-9.75-9.6Z"/>
      <path d="M1495.22,57.43c-1-.9-2.35-1.35-4.05-1.35-2,0-3.53.4-4.58,1.2-1.05.8-2.02,2.25-2.92,4.35l-21.59,52.19,2.09,5.11h-4.2l2.11-5.11-21.31-52.19c-.8-2.1-1.72-3.55-2.77-4.35-1.05-.8-2.48-1.2-4.28-1.2-2.1,0-3.73.45-4.88,1.35-1.15.9-1.83,2.08-2.02,3.53-.2,1.45.05,3.07.75,4.88l25.35,58.95c1,2.2,2.22,3.83,3.67,4.88,1.45,1.05,3.17,1.58,5.17,1.58s3.75-.52,5.25-1.58c1.5-1.05,2.7-2.67,3.6-4.88l25.5-59.1c.8-1.7,1.1-3.27.9-4.72-.2-1.45-.8-2.62-1.8-3.53Z"/>
      <path class="cls-32" d="M1495.22,57.43c-1-.9-2.35-1.35-4.05-1.35-2,0-3.53.4-4.58,1.2-1.05.8-2.02,2.25-2.92,4.35l-21.59,52.19,2.09,5.11h-4.2l2.11-5.11-21.31-52.19c-.8-2.1-1.72-3.55-2.77-4.35-1.05-.8-2.48-1.2-4.28-1.2-2.1,0-3.73.45-4.88,1.35-1.15.9-1.83,2.08-2.02,3.53-.2,1.45.05,3.07.75,4.88l25.35,58.95c1,2.2,2.22,3.83,3.67,4.88,1.45,1.05,3.17,1.58,5.17,1.58s3.75-.52,5.25-1.58c1.5-1.05,2.7-2.67,3.6-4.88l25.5-59.1c.8-1.7,1.1-3.27.9-4.72-.2-1.45-.8-2.62-1.8-3.53Z"/>
      <polygon points="1464.18 118.93 1462.09 113.82 1459.97 118.93 1464.18 118.93"/>
      <polygon class="cls-27" points="1464.18 118.93 1462.09 113.82 1459.97 118.93 1464.18 118.93"/>
      <path d="M1559.12,60.13c-5-2.9-10.9-4.35-17.7-4.35-5.2,0-9.97.9-14.33,2.7-4.35,1.8-8.15,4.4-11.4,7.8-3.25,3.4-5.75,7.4-7.5,12-1.75,4.6-2.62,9.75-2.62,15.45,0,7.8,1.52,14.53,4.58,20.17,3.05,5.65,7.4,10,13.05,13.05,5.65,3.05,12.42,4.57,20.33,4.57,4.2,0,8.37-.65,12.52-1.95,4.15-1.3,7.73-3.05,10.73-5.25,1.4-.9,2.32-1.92,2.77-3.08.45-1.15.53-2.27.23-3.38-.3-1.1-.88-2-1.73-2.7-.85-.7-1.85-1.1-3-1.2-1.15-.1-2.43.25-3.83,1.05-3.1,2-6.03,3.38-8.77,4.12-2.75.75-5.68,1.12-8.78,1.12-4.9,0-9.2-.95-12.9-2.85-3.7-1.9-6.58-4.82-8.62-8.78-1.34-2.58-2.21-5.62-2.63-9.12-.98.01-1.98.03-2.99.04l.3-10.5h2.68c.31-3.93,1.13-7.41,2.49-10.43,1.65-3.65,4.1-6.47,7.35-8.47,3.25-2,7.28-3,12.08-3,6.2,0,11.25,1.8,15.15,5.4,3.62,3.35,5.5,7.87,5.67,13.55.82-.21,1.64-.42,2.43-.65l-2.4,1.95c0-.45-.02-.87-.03-1.3-3.75.96-7.8,1.68-12.19,2.13-5.35.55-10.85.83-16.5.83h-14.04c-.06.83-.11,1.68-.13,2.55l-.15,1.95c-.03,2.12.07,4.1.29,5.96,6.18-.09,11.74-.2,16.66-.33,5.7-.15,10.9-.38,15.6-.68,4.7-.3,9.15-.9,13.35-1.8,2-.4,3.75-.87,5.25-1.42,1.5-.55,2.65-1.37,3.45-2.47.8-1.1,1.2-2.6,1.2-4.5,0-6.1-1.4-11.6-4.2-16.5-2.8-4.9-6.7-8.8-11.7-11.7Z"/>
      <path class="cls-35" d="M1559.12,60.13c-5-2.9-10.9-4.35-17.7-4.35-5.2,0-9.97.9-14.33,2.7-4.35,1.8-8.15,4.4-11.4,7.8-3.25,3.4-5.75,7.4-7.5,12-1.75,4.6-2.62,9.75-2.62,15.45,0,7.8,1.52,14.53,4.58,20.17,3.05,5.65,7.4,10,13.05,13.05,5.65,3.05,12.42,4.57,20.33,4.57,4.2,0,8.37-.65,12.52-1.95,4.15-1.3,7.73-3.05,10.73-5.25,1.4-.9,2.32-1.92,2.77-3.08.45-1.15.53-2.27.23-3.38-.3-1.1-.88-2-1.73-2.7-.85-.7-1.85-1.1-3-1.2-1.15-.1-2.43.25-3.83,1.05-3.1,2-6.03,3.38-8.77,4.12-2.75.75-5.68,1.12-8.78,1.12-4.9,0-9.2-.95-12.9-2.85-3.7-1.9-6.58-4.82-8.62-8.78-1.34-2.58-2.21-5.62-2.63-9.12-.98.01-1.98.03-2.99.04l.3-10.5h2.68c.31-3.93,1.13-7.41,2.49-10.43,1.65-3.65,4.1-6.47,7.35-8.47,3.25-2,7.28-3,12.08-3,6.2,0,11.25,1.8,15.15,5.4,3.62,3.35,5.5,7.87,5.67,13.55.82-.21,1.64-.42,2.43-.65l-2.4,1.95c0-.45-.02-.87-.03-1.3-3.75.96-7.8,1.68-12.19,2.13-5.35.55-10.85.83-16.5.83h-14.04c-.06.83-.11,1.68-.13,2.55l-.15,1.95c-.03,2.12.07,4.1.29,5.96,6.18-.09,11.74-.2,16.66-.33,5.7-.15,10.9-.38,15.6-.68,4.7-.3,9.15-.9,13.35-1.8,2-.4,3.75-.87,5.25-1.42,1.5-.55,2.65-1.37,3.45-2.47.8-1.1,1.2-2.6,1.2-4.5,0-6.1-1.4-11.6-4.2-16.5-2.8-4.9-6.7-8.8-11.7-11.7Z"/>
      <path d="M1564.67,85.48c-.79.23-1.61.44-2.43.65.01.43.04.86.03,1.3l2.4-1.95Z"/>
      <path class="cls-22" d="M1564.67,85.48c-.79.23-1.61.44-2.43.65.01.43.04.86.03,1.3l2.4-1.95Z"/>
      <path d="M1519.37,91.63c.02-.87.07-1.72.13-2.55h-2.68l-.3,10.5c1.01-.01,2.01-.03,2.99-.04-.22-1.86-.33-3.84-.29-5.96l.15-1.95Z"/>
      <path class="cls-38" d="M1519.37,91.63c.02-.87.07-1.72.13-2.55h-2.68l-.3,10.5c1.01-.01,2.01-.03,2.99-.04-.22-1.86-.33-3.84-.29-5.96l.15-1.95Z"/>
      <path d="M1628.12,57.88c-.8-.8-1.78-1.37-2.92-1.73-1.15-.35-2.38-.47-3.67-.38-4.1.2-7.45,1.23-10.05,3.08-2.6,1.85-4.68,4.2-6.23,7.05-.86,1.59-1.63,3.29-2.33,5.07v4.45h-1.5c.44-1.55.95-3.03,1.5-4.45v-6.95c0-2.4-.62-4.37-1.88-5.92-1.25-1.55-2.98-2.33-5.17-2.33-1.7,0-3.2.63-4.5,1.88-1.3,1.25-1.95,3.08-1.95,5.48v60.75c0,2.3.6,4.1,1.8,5.4,1.2,1.3,2.75,1.95,4.65,1.95,2.4,0,4.2-.65,5.4-1.95,1.2-1.3,1.8-3.1,1.8-5.4v-34.2c0-4.2.47-7.8,1.42-10.8.95-3,2.75-5.37,5.4-7.12,2.65-1.75,6.42-2.82,11.33-3.23l2.4-.3c1.3-.2,2.42-.65,3.38-1.35.95-.7,1.65-1.55,2.1-2.55.45-1,.57-2.05.38-3.15-.1-1.4-.55-2.5-1.35-3.3Z"/>
      <path class="cls-23" d="M1628.12,57.88c-.8-.8-1.78-1.37-2.92-1.73-1.15-.35-2.38-.47-3.67-.38-4.1.2-7.45,1.23-10.05,3.08-2.6,1.85-4.68,4.2-6.23,7.05-.86,1.59-1.63,3.29-2.33,5.07v4.45h-1.5c.44-1.55.95-3.03,1.5-4.45v-6.95c0-2.4-.62-4.37-1.88-5.92-1.25-1.55-2.98-2.33-5.17-2.33-1.7,0-3.2.63-4.5,1.88-1.3,1.25-1.95,3.08-1.95,5.48v60.75c0,2.3.6,4.1,1.8,5.4,1.2,1.3,2.75,1.95,4.65,1.95,2.4,0,4.2-.65,5.4-1.95,1.2-1.3,1.8-3.1,1.8-5.4v-34.2c0-4.2.47-7.8,1.42-10.8.95-3,2.75-5.37,5.4-7.12,2.65-1.75,6.42-2.82,11.33-3.23l2.4-.3c1.3-.2,2.42-.65,3.38-1.35.95-.7,1.65-1.55,2.1-2.55.45-1,.57-2.05.38-3.15-.1-1.4-.55-2.5-1.35-3.3Z"/>
      <path d="M1602.92,75.43v-4.45c-.55,1.42-1.06,2.9-1.5,4.45h1.5Z"/>
      <path class="cls-13" d="M1602.92,75.43v-4.45c-.55,1.42-1.06,2.9-1.5,4.45h1.5Z"/>
    </g>
  </g>
  <g id="Layer_10" data-name="Layer 10">
    <text class="cls-16" transform="translate(150.58 130.65)"><tspan class="cls-9" x="0" y="0">C</tspan><tspan class="cls-11" x="81.66" y="0">u</tspan><tspan class="cls-10" x="156.81" y="0">e</tspan><tspan class="cls-6" x="228.36" y="0">m</tspan><tspan class="cls-7" x="341.41" y="0">a</tspan><tspan class="cls-5" x="420.54" y="0">r</tspan><tspan class="cls-8" x="469.09" y="0">k</tspan><tspan class="cls-24" x="547.55" y="0"> </tspan></text>
  </g>
  <g id="Layer_12" data-name="Layer 12">
    <text class="cls-17" transform="translate(727.96 129.95)"><tspan class="cls-34" x="0" y="0">b</tspan><tspan x="85.95" y="0">y</tspan></text>
  </g>
</svg>