<?xml version="1.0" encoding="UTF-8"?>
<svg id="Layer_2" data-name="Layer 2" xmlns="http://www.w3.org/2000/svg" xmlns:xlink="http://www.w3.org/1999/xlink" viewBox="0 0 1629.56 139.43">
  <defs>
    <style>
      .cls-1 {
        fill: url(#linear-gradient-15);
      }

      .cls-2 {
        fill: url(#linear-gradient-13);
      }

      .cls-3 {
        fill: none;
      }

      .cls-3, .cls-4 {
        stroke: #fff;
        stroke-linecap: round;
        stroke-linejoin: bevel;
        stroke-width: 3px;
      }

      .cls-5 {
        fill: url(#linear-gradient-2);
      }

      .cls-6 {
        fill: url(#linear-gradient-25);
      }

      .cls-7 {
        fill: url(#linear-gradient-10);
      }

      .cls-8 {
        fill: url(#linear-gradient-12);
      }

      .cls-9, .cls-4 {
        fill: #fff;
      }

      .cls-10 {
        fill: url(#linear-gradient-4);
      }

      .cls-11 {
        fill: #5b6bf8;
      }

      .cls-12 {
        fill: url(#linear-gradient-3);
      }

      .cls-13 {
        fill: url(#linear-gradient-5);
      }

      .cls-14 {
        fill: url(#linear-gradient-22);
      }

      .cls-15 {
        fill: url(#linear-gradient-24);
      }

      .cls-16 {
        fill: url(#linear-gradient-8);
      }

      .cls-17 {
        fill: url(#linear-gradient-14);
      }

      .cls-18 {
        fill: url(#linear-gradient-20);
      }

      .cls-19 {
        fill: url(#linear-gradient-17);
      }

      .cls-20 {
        fill: url(#linear-gradient-7);
      }

      .cls-21 {
        fill: url(#linear-gradient-9);
      }

      .cls-22 {
        fill: url(#linear-gradient-11);
      }

      .cls-23 {
        fill: url(#linear-gradient-19);
      }

      .cls-24 {
        fill: url(#linear-gradient-6);
      }

      .cls-25 {
        fill: url(#linear-gradient-21);
      }

      .cls-26 {
        fill: url(#linear-gradient-16);
      }

      .cls-27 {
        fill: url(#linear-gradient);
      }

      .cls-28 {
        fill: url(#linear-gradient-23);
      }

      .cls-29 {
        fill: url(#linear-gradient-18);
      }
    </style>
    <linearGradient id="linear-gradient" x1="910.63" y1="61.58" x2="1660.93" y2="61.58" gradientUnits="userSpaceOnUse">
      <stop offset="0" stop-color="#14009f"/>
      <stop offset=".1" stop-color="#209"/>
      <stop offset=".33" stop-color="#3f008d"/>
      <stop offset=".56" stop-color="#540085"/>
      <stop offset=".78" stop-color="#600080"/>
      <stop offset="1" stop-color="#65007f"/>
    </linearGradient>
    <linearGradient id="linear-gradient-2" x1="910.63" y1="71.18" x2="1660.93" y2="71.18" xlink:href="#linear-gradient"/>
    <linearGradient id="linear-gradient-3" x1="910.63" y1="68.11" x2="1660.93" y2="68.11" xlink:href="#linear-gradient"/>
    <linearGradient id="linear-gradient-4" y1="75.31" x2="1660.93" y2="75.31" xlink:href="#linear-gradient"/>
    <linearGradient id="linear-gradient-5" x1="910.63" y1="75.98" x2="1660.93" y2="75.98" xlink:href="#linear-gradient"/>
    <linearGradient id="linear-gradient-6" x1="910.63" y1="110.18" x2="1660.93" y2="110.18" xlink:href="#linear-gradient"/>
    <linearGradient id="linear-gradient-7" x1="910.63" y1="88.58" x2="1660.93" y2="88.58" xlink:href="#linear-gradient"/>
    <linearGradient id="linear-gradient-8" y1="98.17" x2="1660.93" y2="98.17" xlink:href="#linear-gradient"/>
    <linearGradient id="linear-gradient-9" y1="97.65" x2="1660.93" y2="97.65" xlink:href="#linear-gradient"/>
    <linearGradient id="linear-gradient-10" y1="97.76" x2="1660.93" y2="97.76" xlink:href="#linear-gradient"/>
    <linearGradient id="linear-gradient-11" y1="53.7" x2="1660.93" y2="53.7" xlink:href="#linear-gradient"/>
    <linearGradient id="linear-gradient-12" y1="75.31" x2="1660.93" y2="75.31" xlink:href="#linear-gradient"/>
    <linearGradient id="linear-gradient-13" y1="75.31" x2="1660.93" y2="75.31" xlink:href="#linear-gradient"/>
    <linearGradient id="linear-gradient-14" x1="910.63" y1="75.98" x2="1660.93" y2="75.98" xlink:href="#linear-gradient"/>
    <linearGradient id="linear-gradient-15" y1="68.11" x2="1660.93" y2="68.11" xlink:href="#linear-gradient"/>
    <linearGradient id="linear-gradient-16" y1="78.59" x2="1660.93" y2="78.59" xlink:href="#linear-gradient"/>
    <linearGradient id="linear-gradient-17" y1="100.54" x2="1660.93" y2="100.54" xlink:href="#linear-gradient"/>
    <linearGradient id="linear-gradient-18" y1="75.15" x2="1660.93" y2="75.15" xlink:href="#linear-gradient"/>
    <linearGradient id="linear-gradient-19" x1="910.63" y1="75.31" x2="1660.93" y2="75.31" xlink:href="#linear-gradient"/>
    <linearGradient id="linear-gradient-20" x1="910.63" y1="98.03" x2="1660.93" y2="98.03" xlink:href="#linear-gradient"/>
    <linearGradient id="linear-gradient-21" y1="75.31" x2="1660.93" y2="75.31" xlink:href="#linear-gradient"/>
    <linearGradient id="linear-gradient-22" x1="910.63" y1="68.11" x2="1660.93" y2="68.11" xlink:href="#linear-gradient"/>
    <linearGradient id="linear-gradient-23" x1="910.63" y1="75.98" x2="1660.93" y2="75.98" xlink:href="#linear-gradient"/>
    <linearGradient id="linear-gradient-24" x1="910.63" y1="75.14" x2="1660.93" y2="75.14" xlink:href="#linear-gradient"/>
    <linearGradient id="linear-gradient-25" y1="54.86" x2="1660.93" y2="54.86" xlink:href="#linear-gradient"/>
  </defs>
  <g id="Export">
    <g id="Layer_8_copy" data-name="Layer 8 copy">
      <g id="Layer_9_copy_2" data-name="Layer 9 copy 2">
        <g id="Layer_4_copy_2" data-name="Layer 4 copy 2">
          <rect class="cls-11" width="129.15" height="129.15" rx="16.34" ry="16.34"/>
        </g>
        <g id="Layer_5_copy_2" data-name="Layer 5 copy 2">
          <path class="cls-3" d="M19.2,90.35s16.56-51.44,31.68-51.55c15.27-.11,17.53,50.44,32.76,51.55,14.43,1.05,26.31-51.55,26.31-51.55"/>
        </g>
        <g id="Layer_6_copy_3" data-name="Layer 6 copy 3">
          <circle class="cls-4" cx="19.71" cy="89.23" r="3.11"/>
        </g>
        <g id="Layer_6_copy_3-2" data-name="Layer 6 copy 3">
          <circle class="cls-4" cx="109.67" cy="39.3" r="3.11"/>
        </g>
      </g>
      <g>
        <path d="M933.63,10.28s-.02,0-.04,0h.08s-.03,0-.04,0Z"/>
        <path d="M1091.13,139.43s.03,0,.04,0h-.06s.01,0,.02,0Z"/>
        <path d="M928.6,12.31c-1.15,1.35-1.73,3.38-1.73,6.08v87.3c0,2.3.57,4.08,1.73,5.33,1.15,1.25,2.82,1.88,5.02,1.88,2.4,0,4.15-.63,5.25-1.88,1.1-1.25,1.65-3.02,1.65-5.33v-18.9l6.75-6.6,27.6,28.65c1.4,1.3,2.75,2.33,4.05,3.08,1.3.75,2.55,1.02,3.75.83,1.2-.2,2.3-.85,3.3-1.95.9-1,1.43-2.07,1.58-3.23.15-1.15-.05-2.35-.6-3.6-.55-1.25-1.38-2.42-2.48-3.53l-26.96-29.1-3.34,3.3v-6.9l3.34,3.6,22.31-22.05c1.2-1.3,2-2.55,2.4-3.75.4-1.2.45-2.35.15-3.45-.3-1.1-.85-2.05-1.65-2.85-1.7-1.7-3.52-2.22-5.48-1.58-1.95.65-3.58,1.68-4.88,3.08l-29.85,29.1V18.38c0-2.7-.58-4.72-1.73-6.08-1.14-1.34-2.86-2.02-5.14-2.02h-.08c-2.18,0-3.85.68-4.99,2.02Z"/>
        <path class="cls-27" d="M928.6,12.31c-1.15,1.35-1.73,3.38-1.73,6.08v87.3c0,2.3.57,4.08,1.73,5.33,1.15,1.25,2.82,1.88,5.02,1.88,2.4,0,4.15-.63,5.25-1.88,1.1-1.25,1.65-3.02,1.65-5.33v-18.9l6.75-6.6,27.6,28.65c1.4,1.3,2.75,2.33,4.05,3.08,1.3.75,2.55,1.02,3.75.83,1.2-.2,2.3-.85,3.3-1.95.9-1,1.43-2.07,1.58-3.23.15-1.15-.05-2.35-.6-3.6-.55-1.25-1.38-2.42-2.48-3.53l-26.96-29.1-3.34,3.3v-6.9l3.34,3.6,22.31-22.05c1.2-1.3,2-2.55,2.4-3.75.4-1.2.45-2.35.15-3.45-.3-1.1-.85-2.05-1.65-2.85-1.7-1.7-3.52-2.22-5.48-1.58-1.95.65-3.58,1.68-4.88,3.08l-29.85,29.1V18.38c0-2.7-.58-4.72-1.73-6.08-1.14-1.34-2.86-2.02-5.14-2.02h-.08c-2.18,0-3.85.68-4.99,2.02Z"/>
        <polygon points="954.18 74.63 957.52 71.33 954.18 67.73 954.18 74.63"/>
        <polygon class="cls-5" points="954.18 74.63 957.52 71.33 954.18 67.73 954.18 74.63"/>
        <path d="M1054.38,67.13c-.79.23-1.61.44-2.43.65.01.43.04.86.03,1.3l2.4-1.95Z"/>
        <path class="cls-12" d="M1054.38,67.13c-.79.23-1.61.44-2.43.65.01.43.04.86.03,1.3l2.4-1.95Z"/>
        <path d="M1048.83,41.78c-5-2.9-10.9-4.35-17.7-4.35-5.2,0-9.97.9-14.32,2.7s-8.15,4.4-11.4,7.8c-3.25,3.4-5.75,7.4-7.5,12-1.75,4.6-2.62,9.75-2.62,15.45,0,7.8,1.52,14.53,4.57,20.17,3.05,5.65,7.4,10,13.05,13.05,5.65,3.05,12.42,4.57,20.32,4.57,4.2,0,8.37-.65,12.52-1.95,4.15-1.3,7.73-3.05,10.73-5.25,1.4-.9,2.33-1.92,2.77-3.08.45-1.15.53-2.27.23-3.38-.3-1.1-.88-2-1.73-2.7-.85-.7-1.85-1.1-3-1.2-1.15-.1-2.43.25-3.82,1.05-3.1,2-6.03,3.38-8.77,4.12-2.75.75-5.68,1.12-8.78,1.12-4.9,0-9.2-.95-12.9-2.85-3.7-1.9-6.58-4.82-8.62-8.78-1.34-2.58-2.21-5.62-2.63-9.12-.98.01-1.98.03-2.99.04l.3-10.5h2.68c.31-3.93,1.13-7.41,2.49-10.43,1.65-3.65,4.1-6.47,7.35-8.47,3.25-2,7.27-3,12.07-3,6.2,0,11.25,1.8,15.15,5.4,3.62,3.35,5.5,7.87,5.67,13.55.82-.21,1.64-.42,2.43-.65l-2.4,1.95c0-.45-.02-.87-.03-1.3-3.75.96-7.8,1.68-12.19,2.13-5.35.55-10.85.83-16.5.83h-14.04c-.06.83-.11,1.68-.13,2.55l-.15,1.95c-.04,2.12.07,4.1.29,5.96,6.18-.09,11.74-.2,16.66-.33,5.7-.15,10.9-.38,15.6-.68,4.7-.3,9.15-.9,13.35-1.8,2-.4,3.75-.87,5.25-1.42,1.5-.55,2.65-1.37,3.45-2.47.8-1.1,1.2-2.6,1.2-4.5,0-6.1-1.4-11.6-4.2-16.5-2.8-4.9-6.7-8.8-11.7-11.7Z"/>
        <path class="cls-10" d="M1048.83,41.78c-5-2.9-10.9-4.35-17.7-4.35-5.2,0-9.97.9-14.32,2.7s-8.15,4.4-11.4,7.8c-3.25,3.4-5.75,7.4-7.5,12-1.75,4.6-2.62,9.75-2.62,15.45,0,7.8,1.52,14.53,4.57,20.17,3.05,5.65,7.4,10,13.05,13.05,5.65,3.05,12.42,4.57,20.32,4.57,4.2,0,8.37-.65,12.52-1.95,4.15-1.3,7.73-3.05,10.73-5.25,1.4-.9,2.33-1.92,2.77-3.08.45-1.15.53-2.27.23-3.38-.3-1.1-.88-2-1.73-2.7-.85-.7-1.85-1.1-3-1.2-1.15-.1-2.43.25-3.82,1.05-3.1,2-6.03,3.38-8.77,4.12-2.75.75-5.68,1.12-8.78,1.12-4.9,0-9.2-.95-12.9-2.85-3.7-1.9-6.58-4.82-8.62-8.78-1.34-2.58-2.21-5.62-2.63-9.12-.98.01-1.98.03-2.99.04l.3-10.5h2.68c.31-3.93,1.13-7.41,2.49-10.43,1.65-3.65,4.1-6.47,7.35-8.47,3.25-2,7.27-3,12.07-3,6.2,0,11.25,1.8,15.15,5.4,3.62,3.35,5.5,7.87,5.67,13.55.82-.21,1.64-.42,2.43-.65l-2.4,1.95c0-.45-.02-.87-.03-1.3-3.75.96-7.8,1.68-12.19,2.13-5.35.55-10.85.83-16.5.83h-14.04c-.06.83-.11,1.68-.13,2.55l-.15,1.95c-.04,2.12.07,4.1.29,5.96,6.18-.09,11.74-.2,16.66-.33,5.7-.15,10.9-.38,15.6-.68,4.7-.3,9.15-.9,13.35-1.8,2-.4,3.75-.87,5.25-1.42,1.5-.55,2.65-1.37,3.45-2.47.8-1.1,1.2-2.6,1.2-4.5,0-6.1-1.4-11.6-4.2-16.5-2.8-4.9-6.7-8.8-11.7-11.7Z"/>
        <path d="M1009.08,73.28c.02-.87.07-1.72.13-2.55h-2.68l-.3,10.5c1.01-.01,2.01-.03,2.99-.04-.22-1.86-.33-3.84-.29-5.96l.15-1.95Z"/>
        <path class="cls-13" d="M1009.08,73.28c.02-.87.07-1.72.13-2.55h-2.68l-.3,10.5c1.01-.01,2.01-.03,2.99-.04-.22-1.86-.33-3.84-.29-5.96l.15-1.95Z"/>
        <polygon points="1103.13 107.18 1101.81 110.12 1103.13 113.18 1103.13 107.18"/>
        <polygon class="cls-24" points="1103.13 107.18 1101.81 110.12 1103.13 113.18 1103.13 107.18"/>
        <path d="M1101.85,135.91c1.65-1.25,3.17-2.9,4.58-4.95,1.4-2.05,2.75-4.58,4.05-7.58l33-76.05c.8-1.7,1.1-3.27.9-4.72-.2-1.45-.8-2.62-1.8-3.53-1-.9-2.35-1.35-4.05-1.35-2,0-3.55.4-4.65,1.2-1.1.8-2.05,2.25-2.85,4.35l-21.59,52.33,2.09,5.12h-4.2l2.11-5.12-21.31-52.33c-.8-2.1-1.73-3.55-2.77-4.35-1.05-.8-2.48-1.2-4.28-1.2-2.1,0-3.73.45-4.88,1.35-1.15.9-1.85,2.08-2.1,3.53-.25,1.45-.03,3.07.67,4.88l27.03,62.64,1.32-2.94v6l-1.32-3.06-4.53,10.11c-1.1,2.5-2.17,4.3-3.23,5.4-1.05,1.1-2.13,1.65-3.23,1.65s-2.23.2-3.38.6c-1.15.4-2.05,1.02-2.7,1.88-.65.85-1.03,1.92-1.12,3.23-.1,1.9.55,3.45,1.95,4.65,1.39,1.2,3.24,1.79,5.53,1.8h.06c1.98,0,3.84-.28,5.58-.82,1.75-.55,3.45-1.45,5.1-2.7Z"/>
        <path class="cls-20" d="M1101.85,135.91c1.65-1.25,3.17-2.9,4.58-4.95,1.4-2.05,2.75-4.58,4.05-7.58l33-76.05c.8-1.7,1.1-3.27.9-4.72-.2-1.45-.8-2.62-1.8-3.53-1-.9-2.35-1.35-4.05-1.35-2,0-3.55.4-4.65,1.2-1.1.8-2.05,2.25-2.85,4.35l-21.59,52.33,2.09,5.12h-4.2l2.11-5.12-21.31-52.33c-.8-2.1-1.73-3.55-2.77-4.35-1.05-.8-2.48-1.2-4.28-1.2-2.1,0-3.73.45-4.88,1.35-1.15.9-1.85,2.08-2.1,3.53-.25,1.45-.03,3.07.67,4.88l27.03,62.64,1.32-2.94v6l-1.32-3.06-4.53,10.11c-1.1,2.5-2.17,4.3-3.23,5.4-1.05,1.1-2.13,1.65-3.23,1.65s-2.23.2-3.38.6c-1.15.4-2.05,1.02-2.7,1.88-.65.85-1.03,1.92-1.12,3.23-.1,1.9.55,3.45,1.95,4.65,1.39,1.2,3.24,1.79,5.53,1.8h.06c1.98,0,3.84-.28,5.58-.82,1.75-.55,3.45-1.45,5.1-2.7Z"/>
        <polygon points="1111.53 100.73 1109.44 95.61 1107.33 100.73 1111.53 100.73"/>
        <polygon class="cls-16" points="1111.53 100.73 1109.44 95.61 1107.33 100.73 1111.53 100.73"/>
        <polygon points="1188.47 100.43 1186.69 94.87 1184.87 100.43 1188.47 100.43"/>
        <polygon class="cls-21" points="1188.47 100.43 1186.69 94.87 1184.87 100.43 1188.47 100.43"/>
        <polygon points="1236.47 100.43 1234.76 95.09 1233.02 100.43 1236.47 100.43"/>
        <polygon class="cls-7" points="1236.47 100.43 1234.76 95.09 1233.02 100.43 1236.47 100.43"/>
        <polygon points="1206.92 48.38 1210.46 59.03 1213.97 48.38 1206.92 48.38"/>
        <polygon class="cls-22" points="1206.92 48.38 1210.46 59.03 1213.97 48.38 1206.92 48.38"/>
        <path d="M1262.8,39.08c-.95-.9-2.38-1.35-4.27-1.35-1.2,0-2.5.35-3.9,1.05-1.4.7-2.4,2.15-3,4.35l-16.87,51.96,1.72,5.34h-3.45l1.73-5.34-16.73-52.11c-.5-1.8-1.38-3.12-2.62-3.98-1.25-.85-2.78-1.27-4.58-1.27-1.7,0-3.15.43-4.35,1.27-1.2.85-2.15,2.17-2.85,3.98l-16.94,51.89,1.78,5.56h-3.6l1.81-5.56-16.51-51.44c-.6-2.3-1.58-3.82-2.92-4.57s-2.62-1.12-3.83-1.12c-2.7,0-4.63.88-5.77,2.62-1.15,1.75-1.23,4.12-.23,7.12l20.25,59.1c.8,2.3,1.95,3.93,3.45,4.88s3.2,1.42,5.1,1.42c2.1,0,3.88-.52,5.33-1.58,1.45-1.05,2.52-2.62,3.23-4.72l15.69-47.56-3.54-10.64h7.05l-3.51,10.64,15.81,47.56c.7,2.1,1.82,3.67,3.38,4.72,1.55,1.05,3.27,1.58,5.17,1.58s3.62-.5,5.17-1.5c1.55-1,2.67-2.6,3.38-4.8l20.25-59.1c.6-1.7.85-3.3.75-4.8-.1-1.5-.63-2.7-1.58-3.6Z"/>
        <path class="cls-8" d="M1262.8,39.08c-.95-.9-2.38-1.35-4.27-1.35-1.2,0-2.5.35-3.9,1.05-1.4.7-2.4,2.15-3,4.35l-16.87,51.96,1.72,5.34h-3.45l1.73-5.34-16.73-52.11c-.5-1.8-1.38-3.12-2.62-3.98-1.25-.85-2.78-1.27-4.58-1.27-1.7,0-3.15.43-4.35,1.27-1.2.85-2.15,2.17-2.85,3.98l-16.94,51.89,1.78,5.56h-3.6l1.81-5.56-16.51-51.44c-.6-2.3-1.58-3.82-2.92-4.57s-2.62-1.12-3.83-1.12c-2.7,0-4.63.88-5.77,2.62-1.15,1.75-1.23,4.12-.23,7.12l20.25,59.1c.8,2.3,1.95,3.93,3.45,4.88s3.2,1.42,5.1,1.42c2.1,0,3.88-.52,5.33-1.58,1.45-1.05,2.52-2.62,3.23-4.72l15.69-47.56-3.54-10.64h7.05l-3.51,10.64,15.81,47.56c.7,2.1,1.82,3.67,3.38,4.72,1.55,1.05,3.27,1.58,5.17,1.58s3.62-.5,5.17-1.5c1.55-1,2.67-2.6,3.38-4.8l20.25-59.1c.6-1.7.85-3.3.75-4.8-.1-1.5-.63-2.7-1.58-3.6Z"/>
        <path d="M1327.67,41.78c-5-2.9-10.9-4.35-17.7-4.35-5.2,0-9.97.9-14.33,2.7-4.35,1.8-8.15,4.4-11.4,7.8-3.25,3.4-5.75,7.4-7.5,12-1.75,4.6-2.62,9.75-2.62,15.45,0,7.8,1.52,14.53,4.58,20.17,3.05,5.65,7.4,10,13.05,13.05,5.65,3.05,12.42,4.57,20.33,4.57,4.2,0,8.37-.65,12.52-1.95,4.15-1.3,7.73-3.05,10.73-5.25,1.4-.9,2.32-1.92,2.77-3.08.45-1.15.53-2.27.23-3.38-.3-1.1-.88-2-1.73-2.7-.85-.7-1.85-1.1-3-1.2-1.15-.1-2.43.25-3.83,1.05-3.1,2-6.03,3.38-8.77,4.12-2.75.75-5.68,1.12-8.78,1.12-4.9,0-9.2-.95-12.9-2.85-3.7-1.9-6.58-4.82-8.62-8.78-1.34-2.58-2.21-5.62-2.63-9.12-.98.01-1.98.03-2.99.04l.3-10.5h2.68c.31-3.93,1.13-7.41,2.49-10.43,1.65-3.65,4.1-6.47,7.35-8.47,3.25-2,7.28-3,12.08-3,6.2,0,11.25,1.8,15.15,5.4,3.62,3.35,5.5,7.87,5.67,13.55.82-.21,1.64-.42,2.43-.65l-2.4,1.95c0-.45-.02-.87-.03-1.3-3.75.96-7.8,1.68-12.19,2.13-5.35.55-10.85.83-16.5.83h-14.04c-.06.83-.11,1.68-.13,2.55l-.15,1.95c-.03,2.12.07,4.1.29,5.96,6.18-.09,11.74-.2,16.66-.33,5.7-.15,10.9-.38,15.6-.68,4.7-.3,9.15-.9,13.35-1.8,2-.4,3.75-.87,5.25-1.42,1.5-.55,2.65-1.37,3.45-2.47.8-1.1,1.2-2.6,1.2-4.5,0-6.1-1.4-11.6-4.2-16.5-2.8-4.9-6.7-8.8-11.7-11.7Z"/>
        <path class="cls-2" d="M1327.67,41.78c-5-2.9-10.9-4.35-17.7-4.35-5.2,0-9.97.9-14.33,2.7-4.35,1.8-8.15,4.4-11.4,7.8-3.25,3.4-5.75,7.4-7.5,12-1.75,4.6-2.62,9.75-2.62,15.45,0,7.8,1.52,14.53,4.58,20.17,3.05,5.65,7.4,10,13.05,13.05,5.65,3.05,12.42,4.57,20.33,4.57,4.2,0,8.37-.65,12.52-1.95,4.15-1.3,7.73-3.05,10.73-5.25,1.4-.9,2.32-1.92,2.77-3.08.45-1.15.53-2.27.23-3.38-.3-1.1-.88-2-1.73-2.7-.85-.7-1.85-1.1-3-1.2-1.15-.1-2.43.25-3.83,1.05-3.1,2-6.03,3.38-8.77,4.12-2.75.75-5.68,1.12-8.78,1.12-4.9,0-9.2-.95-12.9-2.85-3.7-1.9-6.58-4.82-8.62-8.78-1.34-2.58-2.21-5.62-2.63-9.12-.98.01-1.98.03-2.99.04l.3-10.5h2.68c.31-3.93,1.13-7.41,2.49-10.43,1.65-3.65,4.1-6.47,7.35-8.47,3.25-2,7.28-3,12.08-3,6.2,0,11.25,1.8,15.15,5.4,3.62,3.35,5.5,7.87,5.67,13.55.82-.21,1.64-.42,2.43-.65l-2.4,1.95c0-.45-.02-.87-.03-1.3-3.75.96-7.8,1.68-12.19,2.13-5.35.55-10.85.83-16.5.83h-14.04c-.06.83-.11,1.68-.13,2.55l-.15,1.95c-.03,2.12.07,4.1.29,5.96,6.18-.09,11.74-.2,16.66-.33,5.7-.15,10.9-.38,15.6-.68,4.7-.3,9.15-.9,13.35-1.8,2-.4,3.75-.87,5.25-1.42,1.5-.55,2.65-1.37,3.45-2.47.8-1.1,1.2-2.6,1.2-4.5,0-6.1-1.4-11.6-4.2-16.5-2.8-4.9-6.7-8.8-11.7-11.7Z"/>
        <path d="M1287.92,73.28c.02-.87.07-1.72.13-2.55h-2.68l-.3,10.5c1.01-.01,2.01-.03,2.99-.04-.22-1.86-.33-3.84-.29-5.96l.15-1.95Z"/>
        <path class="cls-17" d="M1287.92,73.28c.02-.87.07-1.72.13-2.55h-2.68l-.3,10.5c1.01-.01,2.01-.03,2.99-.04-.22-1.86-.33-3.84-.29-5.96l.15-1.95Z"/>
        <path d="M1333.22,67.13c-.79.23-1.61.44-2.43.65.01.43.04.86.03,1.3l2.4-1.95Z"/>
        <path class="cls-1" d="M1333.22,67.13c-.79.23-1.61.44-2.43.65.01.43.04.86.03,1.3l2.4-1.95Z"/>
        <polygon points="1403.12 82.88 1403.57 75.38 1401.47 74.3 1401.47 82.15 1403.12 82.88"/>
        <polygon class="cls-26" points="1403.12 82.88 1403.57 75.38 1401.47 74.3 1401.47 82.15 1403.12 82.88"/>
        <path d="M1401.77,98.48v4.11c.57-1.25,1.03-2.61,1.35-4.11h-1.35Z"/>
        <path class="cls-19" d="M1401.77,98.48v4.11c.57-1.25,1.03-2.61,1.35-4.11h-1.35Z"/>
        <path d="M1401.92,40.28c-4.3-2.1-9.55-3.15-15.75-3.15-2.1-.1-4.58.13-7.42.67-2.85.55-5.75,1.5-8.7,2.85-2.95,1.35-5.68,3.18-8.17,5.47-1.3,1-2.13,2.13-2.48,3.38-.35,1.25-.35,2.43,0,3.53.35,1.1.98,2,1.88,2.7.9.7,1.97,1.05,3.23,1.05s2.57-.55,3.97-1.65c2.2-1.9,4.37-3.38,6.53-4.42,2.15-1.05,4.15-1.77,6-2.17,1.85-.4,3.47-.6,4.88-.6,4.9,0,8.72,1.35,11.47,4.05,2.75,2.7,4.12,6.95,4.12,12.75v9.57l2.1,1.08-.45,7.5-1.65-.73v3.43c0,3-.6,5.6-1.8,7.8-1.2,2.2-2.78,4.03-4.72,5.48-1.95,1.45-4.08,2.5-6.38,3.15-2.3.65-4.45.98-6.45.98-4.7,0-8.4-1.22-11.1-3.68-2.7-2.45-4.05-5.57-4.05-9.38,0-2.7.77-5.05,2.33-7.05,1.55-2,3.72-3.52,6.53-4.58,2.8-1.05,6.07-1.45,9.82-1.2,3.75.25,7.77,1.38,12.08,3.38l3.75,1.67v-7.85l-2.85-1.47c-5.3-2.9-10.55-4.5-15.75-4.8-5.2-.3-9.93.45-14.17,2.25-4.25,1.8-7.7,4.42-10.35,7.88-2.65,3.45-3.97,7.42-3.97,11.92-.1,4.1.87,7.9,2.92,11.4,2.05,3.5,4.97,6.33,8.78,8.47,3.8,2.15,8.25,3.22,13.35,3.22,4,0,7.6-.45,10.8-1.35,3.2-.9,5.95-2.42,8.25-4.58,1.37-1.28,2.46-2.84,3.3-4.66v-4.11h1.35c-.33,1.5-.78,2.87-1.35,4.11v3.84c0,1.3.25,2.45.75,3.45.5,1,1.25,1.75,2.25,2.25,1,.5,2.25.75,3.75.75,2.1,0,3.7-.6,4.8-1.8,1.1-1.2,1.65-2.8,1.65-4.8v-39.9c0-6.7-1.1-12.2-3.3-16.5-2.2-4.3-5.45-7.5-9.75-9.6Z"/>
        <path class="cls-29" d="M1401.92,40.28c-4.3-2.1-9.55-3.15-15.75-3.15-2.1-.1-4.58.13-7.42.67-2.85.55-5.75,1.5-8.7,2.85-2.95,1.35-5.68,3.18-8.17,5.47-1.3,1-2.13,2.13-2.48,3.38-.35,1.25-.35,2.43,0,3.53.35,1.1.98,2,1.88,2.7.9.7,1.97,1.05,3.23,1.05s2.57-.55,3.97-1.65c2.2-1.9,4.37-3.38,6.53-4.42,2.15-1.05,4.15-1.77,6-2.17,1.85-.4,3.47-.6,4.88-.6,4.9,0,8.72,1.35,11.47,4.05,2.75,2.7,4.12,6.95,4.12,12.75v9.57l2.1,1.08-.45,7.5-1.65-.73v3.43c0,3-.6,5.6-1.8,7.8-1.2,2.2-2.78,4.03-4.72,5.48-1.95,1.45-4.08,2.5-6.38,3.15-2.3.65-4.45.98-6.45.98-4.7,0-8.4-1.22-11.1-3.68-2.7-2.45-4.05-5.57-4.05-9.38,0-2.7.77-5.05,2.33-7.05,1.55-2,3.72-3.52,6.53-4.58,2.8-1.05,6.07-1.45,9.82-1.2,3.75.25,7.77,1.38,12.08,3.38l3.75,1.67v-7.85l-2.85-1.47c-5.3-2.9-10.55-4.5-15.75-4.8-5.2-.3-9.93.45-14.17,2.25-4.25,1.8-7.7,4.42-10.35,7.88-2.65,3.45-3.97,7.42-3.97,11.92-.1,4.1.87,7.9,2.92,11.4,2.05,3.5,4.97,6.33,8.78,8.47,3.8,2.15,8.25,3.22,13.35,3.22,4,0,7.6-.45,10.8-1.35,3.2-.9,5.95-2.42,8.25-4.58,1.37-1.28,2.46-2.84,3.3-4.66v-4.11h1.35c-.33,1.5-.78,2.87-1.35,4.11v3.84c0,1.3.25,2.45.75,3.45.5,1,1.25,1.75,2.25,2.25,1,.5,2.25.75,3.75.75,2.1,0,3.7-.6,4.8-1.8,1.1-1.2,1.65-2.8,1.65-4.8v-39.9c0-6.7-1.1-12.2-3.3-16.5-2.2-4.3-5.45-7.5-9.75-9.6Z"/>
        <path d="M1495.22,39.08c-1-.9-2.35-1.35-4.05-1.35-2,0-3.53.4-4.58,1.2-1.05.8-2.02,2.25-2.92,4.35l-21.59,52.19,2.09,5.11h-4.2l2.11-5.11-21.31-52.19c-.8-2.1-1.72-3.55-2.77-4.35-1.05-.8-2.48-1.2-4.28-1.2-2.1,0-3.73.45-4.88,1.35-1.15.9-1.83,2.08-2.02,3.53-.2,1.45.05,3.07.75,4.88l25.35,58.95c1,2.2,2.22,3.83,3.67,4.88,1.45,1.05,3.17,1.58,5.17,1.58s3.75-.52,5.25-1.58c1.5-1.05,2.7-2.67,3.6-4.88l25.5-59.1c.8-1.7,1.1-3.27.9-4.72-.2-1.45-.8-2.62-1.8-3.53Z"/>
        <path class="cls-23" d="M1495.22,39.08c-1-.9-2.35-1.35-4.05-1.35-2,0-3.53.4-4.58,1.2-1.05.8-2.02,2.25-2.92,4.35l-21.59,52.19,2.09,5.11h-4.2l2.11-5.11-21.31-52.19c-.8-2.1-1.72-3.55-2.77-4.35-1.05-.8-2.48-1.2-4.28-1.2-2.1,0-3.73.45-4.88,1.35-1.15.9-1.83,2.08-2.02,3.53-.2,1.45.05,3.07.75,4.88l25.35,58.95c1,2.2,2.22,3.83,3.67,4.88,1.45,1.05,3.17,1.58,5.17,1.58s3.75-.52,5.25-1.58c1.5-1.05,2.7-2.67,3.6-4.88l25.5-59.1c.8-1.7,1.1-3.27.9-4.72-.2-1.45-.8-2.62-1.8-3.53Z"/>
        <polygon points="1464.18 100.58 1462.09 95.47 1459.97 100.58 1464.18 100.58"/>
        <polygon class="cls-18" points="1464.18 100.58 1462.09 95.47 1459.97 100.58 1464.18 100.58"/>
        <path d="M1559.12,41.78c-5-2.9-10.9-4.35-17.7-4.35-5.2,0-9.97.9-14.33,2.7-4.35,1.8-8.15,4.4-11.4,7.8-3.25,3.4-5.75,7.4-7.5,12-1.75,4.6-2.62,9.75-2.62,15.45,0,7.8,1.52,14.53,4.58,20.17,3.05,5.65,7.4,10,13.05,13.05,5.65,3.05,12.42,4.57,20.33,4.57,4.2,0,8.37-.65,12.52-1.95,4.15-1.3,7.73-3.05,10.73-5.25,1.4-.9,2.32-1.92,2.77-3.08.45-1.15.53-2.27.23-3.38-.3-1.1-.88-2-1.73-2.7-.85-.7-1.85-1.1-3-1.2-1.15-.1-2.43.25-3.83,1.05-3.1,2-6.03,3.38-8.77,4.12-2.75.75-5.68,1.12-8.78,1.12-4.9,0-9.2-.95-12.9-2.85-3.7-1.9-6.58-4.82-8.62-8.78-1.34-2.58-2.21-5.62-2.63-9.12-.98.01-1.98.03-2.99.04l.3-10.5h2.68c.31-3.93,1.13-7.41,2.49-10.43,1.65-3.65,4.1-6.47,7.35-8.47,3.25-2,7.28-3,12.08-3,6.2,0,11.25,1.8,15.15,5.4,3.62,3.35,5.5,7.87,5.67,13.55.82-.21,1.64-.42,2.43-.65l-2.4,1.95c0-.45-.02-.87-.03-1.3-3.75.96-7.8,1.68-12.19,2.13-5.35.55-10.85.83-16.5.83h-14.04c-.06.83-.11,1.68-.13,2.55l-.15,1.95c-.03,2.12.07,4.1.29,5.96,6.18-.09,11.74-.2,16.66-.33,5.7-.15,10.9-.38,15.6-.68,4.7-.3,9.15-.9,13.35-1.8,2-.4,3.75-.87,5.25-1.42,1.5-.55,2.65-1.37,3.45-2.47.8-1.1,1.2-2.6,1.2-4.5,0-6.1-1.4-11.6-4.2-16.5-2.8-4.9-6.7-8.8-11.7-11.7Z"/>
        <path class="cls-25" d="M1559.12,41.78c-5-2.9-10.9-4.35-17.7-4.35-5.2,0-9.97.9-14.33,2.7-4.35,1.8-8.15,4.4-11.4,7.8-3.25,3.4-5.75,7.4-7.5,12-1.75,4.6-2.62,9.75-2.62,15.45,0,7.8,1.52,14.53,4.58,20.17,3.05,5.65,7.4,10,13.05,13.05,5.65,3.05,12.42,4.57,20.33,4.57,4.2,0,8.37-.65,12.52-1.95,4.15-1.3,7.73-3.05,10.73-5.25,1.4-.9,2.32-1.92,2.77-3.08.45-1.15.53-2.27.23-3.38-.3-1.1-.88-2-1.73-2.7-.85-.7-1.85-1.1-3-1.2-1.15-.1-2.43.25-3.83,1.05-3.1,2-6.03,3.38-8.77,4.12-2.75.75-5.68,1.12-8.78,1.12-4.9,0-9.2-.95-12.9-2.85-3.7-1.9-6.58-4.82-8.62-8.78-1.34-2.58-2.21-5.62-2.63-9.12-.98.01-1.98.03-2.99.04l.3-10.5h2.68c.31-3.93,1.13-7.41,2.49-10.43,1.65-3.65,4.1-6.47,7.35-8.47,3.25-2,7.28-3,12.08-3,6.2,0,11.25,1.8,15.15,5.4,3.62,3.35,5.5,7.87,5.67,13.55.82-.21,1.64-.42,2.43-.65l-2.4,1.95c0-.45-.02-.87-.03-1.3-3.75.96-7.8,1.68-12.19,2.13-5.35.55-10.85.83-16.5.83h-14.04c-.06.83-.11,1.68-.13,2.55l-.15,1.95c-.03,2.12.07,4.1.29,5.96,6.18-.09,11.74-.2,16.66-.33,5.7-.15,10.9-.38,15.6-.68,4.7-.3,9.15-.9,13.35-1.8,2-.4,3.75-.87,5.25-1.42,1.5-.55,2.65-1.37,3.45-2.47.8-1.1,1.2-2.6,1.2-4.5,0-6.1-1.4-11.6-4.2-16.5-2.8-4.9-6.7-8.8-11.7-11.7Z"/>
        <path d="M1564.67,67.13c-.79.23-1.61.44-2.43.65.01.43.04.86.03,1.3l2.4-1.95Z"/>
        <path class="cls-14" d="M1564.67,67.13c-.79.23-1.61.44-2.43.65.01.43.04.86.03,1.3l2.4-1.95Z"/>
        <path d="M1519.37,73.28c.02-.87.07-1.72.13-2.55h-2.68l-.3,10.5c1.01-.01,2.01-.03,2.99-.04-.22-1.86-.33-3.84-.29-5.96l.15-1.95Z"/>
        <path class="cls-28" d="M1519.37,73.28c.02-.87.07-1.72.13-2.55h-2.68l-.3,10.5c1.01-.01,2.01-.03,2.99-.04-.22-1.86-.33-3.84-.29-5.96l.15-1.95Z"/>
        <path d="M1628.12,39.53c-.8-.8-1.78-1.37-2.92-1.73-1.15-.35-2.38-.47-3.67-.38-4.1.2-7.45,1.23-10.05,3.08-2.6,1.85-4.68,4.2-6.23,7.05-.86,1.59-1.63,3.29-2.33,5.07v4.45h-1.5c.44-1.55.95-3.03,1.5-4.45v-6.95c0-2.4-.62-4.37-1.88-5.92-1.25-1.55-2.98-2.33-5.17-2.33-1.7,0-3.2.63-4.5,1.88-1.3,1.25-1.95,3.08-1.95,5.48v60.75c0,2.3.6,4.1,1.8,5.4,1.2,1.3,2.75,1.95,4.65,1.95,2.4,0,4.2-.65,5.4-1.95,1.2-1.3,1.8-3.1,1.8-5.4v-34.2c0-4.2.47-7.8,1.42-10.8.95-3,2.75-5.37,5.4-7.12,2.65-1.75,6.42-2.82,11.33-3.23l2.4-.3c1.3-.2,2.42-.65,3.38-1.35.95-.7,1.65-1.55,2.1-2.55.45-1,.57-2.05.38-3.15-.1-1.4-.55-2.5-1.35-3.3Z"/>
        <path class="cls-15" d="M1628.12,39.53c-.8-.8-1.78-1.37-2.92-1.73-1.15-.35-2.38-.47-3.67-.38-4.1.2-7.45,1.23-10.05,3.08-2.6,1.85-4.68,4.2-6.23,7.05-.86,1.59-1.63,3.29-2.33,5.07v4.45h-1.5c.44-1.55.95-3.03,1.5-4.45v-6.95c0-2.4-.62-4.37-1.88-5.92-1.25-1.55-2.98-2.33-5.17-2.33-1.7,0-3.2.63-4.5,1.88-1.3,1.25-1.95,3.08-1.95,5.48v60.75c0,2.3.6,4.1,1.8,5.4,1.2,1.3,2.75,1.95,4.65,1.95,2.4,0,4.2-.65,5.4-1.95,1.2-1.3,1.8-3.1,1.8-5.4v-34.2c0-4.2.47-7.8,1.42-10.8.95-3,2.75-5.37,5.4-7.12,2.65-1.75,6.42-2.82,11.33-3.23l2.4-.3c1.3-.2,2.42-.65,3.38-1.35.95-.7,1.65-1.55,2.1-2.55.45-1,.57-2.05.38-3.15-.1-1.4-.55-2.5-1.35-3.3Z"/>
        <path d="M1602.92,57.08v-4.45c-.55,1.42-1.06,2.9-1.5,4.45h1.5Z"/>
        <path class="cls-6" d="M1602.92,57.08v-4.45c-.55,1.42-1.06,2.9-1.5,4.45h1.5Z"/>
      </g>
    </g>
    <g id="Layer_10_copy" data-name="Layer 10 copy">
      <g>
        <path class="cls-9" d="M206.84,114.42c-26.87,0-50.41-20.35-50.41-51.74s23.54-51.74,50.41-51.74c11.44,0,20.08,3.06,26.86,6.78v18.75c-7.85-5.19-15.16-8.11-25.14-8.11-17.42,0-33.12,13.17-33.12,34.31s15.69,34.45,33.12,34.45c9.97,0,17.29-3.33,25.14-8.51v19.02c-6.78,3.72-15.43,6.78-26.86,6.78Z"/>
        <path class="cls-9" d="M241.02,83.17v-44.02h18.35v44.02c0,9.18,5.05,14.23,13.7,14.23s14.1-5.05,14.1-14.36v-43.89h18.35v43.89c0,18.22-12.37,31.12-32.45,31.12s-32.05-12.9-32.05-30.99Z"/>
        <path class="cls-9" d="M312.84,75.99c0-23.41,16.36-38.57,36.31-38.57,18.22,0,33.12,12.77,33.12,36.97,0,2.53-.27,4.65-.53,6.65h-51.2c2.53,11.84,11.97,18.22,23.94,18.22,8.11,0,16.09-2.93,23.27-7.98v15.69c-7.45,4.66-16.09,7.18-25.4,7.18-24.74,0-39.5-15.83-39.5-38.17ZM364.71,69.47c-.27-11.3-7.18-17.29-15.69-17.29-9.04,0-16.76,6.65-18.75,17.29h34.45Z"/>
        <path class="cls-9" d="M489.99,63.75v48.54h-18.35v-44.95c0-8.78-3.19-13.17-11.04-13.17s-12.1,5.85-12.1,12.63v45.48h-18.35v-44.95c0-8.78-3.19-13.17-11.17-13.17s-12.1,6.38-12.1,13.43v44.69h-18.35V39.15h14.23l2,10.37h.4c3.72-6.65,10.24-12.1,19.95-12.1,10.37,0,16.89,4.79,20.48,12.5,4.66-7.71,11.57-12.5,21.01-12.5,15.96,0,23.41,10.51,23.41,26.33Z"/>
        <path class="cls-9" d="M497.44,75.86c0-23.27,16.09-38.44,32.72-38.44,10.77,0,19.55,5.32,24.6,13.7h.13l1.86-11.97h15.43v73.15h-15.43l-1.86-11.97h-.13c-5.05,8.38-13.83,13.83-24.6,13.83-16.62,0-32.72-15.29-32.72-38.3ZM535.21,97.4c10.77,0,18.89-8.91,18.89-21.68s-8.11-21.68-18.89-21.68-19.28,9.04-19.28,21.68,8.25,21.68,19.28,21.68Z"/>
        <path class="cls-9" d="M580.7,39.15h14.63l1.86,11.17h.27c4.92-9.04,13.7-11.97,20.22-11.97,1.99,0,3.72.13,5.32.53v17.16c-2-.4-3.86-.53-5.85-.53-9.18,0-18.09,5.19-18.09,19.15v37.64h-18.35V39.15Z"/>
        <path class="cls-9" d="M667.94,73.99l31.12,38.3h-22.74l-28.73-36.04v36.04h-18.35V5.63h18.35v67.29l28.46-33.78h22.08l-30.19,34.84Z"/>
      </g>
    </g>
    <g id="Layer_12_copy" data-name="Layer 12 copy">
      <g>
        <path class="cls-9" d="M776.86,112.95c-6.5,0-12.13-1.35-16.87-4.05-4.75-2.7-7.93-6.5-9.52-11.4l1.65-2.4v10.35c0,2.3-.55,4.08-1.65,5.33-1.1,1.25-2.75,1.88-4.95,1.88s-3.9-.63-5.1-1.88c-1.2-1.25-1.8-3.02-1.8-5.33V17.1c0-1.9.6-3.55,1.8-4.95,1.2-1.4,2.9-2.1,5.1-2.1s4.02.7,5.18,2.1c1.15,1.4,1.73,3.05,1.73,4.95v37.65h-1.8c1.6-5.4,4.75-9.68,9.45-12.83,4.7-3.15,10.3-4.73,16.8-4.73s12.1,1.53,16.8,4.58c4.7,3.05,8.3,7.4,10.8,13.05,2.5,5.65,3.75,12.38,3.75,20.18s-1.28,14.43-3.83,20.17c-2.55,5.75-6.18,10.15-10.88,13.2-4.7,3.05-10.25,4.57-16.65,4.57ZM773.41,101.85c4.3,0,8.05-1.02,11.25-3.08,3.2-2.05,5.67-5.07,7.42-9.08,1.75-4,2.62-8.9,2.62-14.7,0-8.7-1.93-15.32-5.78-19.88-3.85-4.55-9.03-6.83-15.52-6.83-4.3,0-8,.95-11.1,2.85-3.1,1.9-5.5,4.5-7.2,7.8-1.7,3.3-2.7,7.05-3,11.25,0,1,.02,2.3.08,3.9.05,1.6.1,3.3.15,5.1.05,1.8.12,3.4.23,4.8.1,1.4.2,2.4.3,3,.7,3,2.02,5.62,3.98,7.88s4.37,3.97,7.27,5.17c2.9,1.2,6,1.8,9.3,1.8Z"/>
        <path class="cls-9" d="M834.76,139.2c-2.3,0-4.15-.6-5.55-1.8-1.4-1.2-2.05-2.75-1.95-4.65.1-1.3.47-2.38,1.12-3.23.65-.85,1.55-1.48,2.7-1.88,1.15-.4,2.27-.6,3.38-.6s2.18-.55,3.23-1.65c1.05-1.1,2.12-2.9,3.22-5.4l5.85-13.05v6l-28.35-65.7c-.7-1.8-.93-3.42-.67-4.88.25-1.45.95-2.62,2.1-3.53,1.15-.9,2.78-1.35,4.88-1.35,1.8,0,3.23.4,4.28,1.2,1.05.8,1.97,2.25,2.78,4.35l23.4,57.45h-4.2l23.7-57.45c.8-2.1,1.75-3.55,2.85-4.35,1.1-.8,2.65-1.2,4.65-1.2,1.7,0,3.05.45,4.05,1.35,1,.9,1.6,2.08,1.8,3.53.2,1.45-.1,3.03-.9,4.72l-33,76.05c-1.3,3-2.65,5.52-4.05,7.58-1.4,2.05-2.92,3.7-4.58,4.95-1.65,1.25-3.35,2.15-5.1,2.7-1.75.55-3.63.82-5.62.82Z"/>
      </g>
    </g>
  </g>
</svg>