<?xml version="1.0" encoding="UTF-8"?>
<svg id="Layer_2" data-name="Layer 2" xmlns="http://www.w3.org/2000/svg" xmlns:xlink="http://www.w3.org/1999/xlink" viewBox="0 0 1393.46 129.57">
  <defs>
    <style>
      .cls-1 {
        fill: url(#linear-gradient-15);
      }

      .cls-2 {
        fill: url(#linear-gradient-13);
      }

      .cls-3 {
        fill: none;
      }

      .cls-3, .cls-4 {
        stroke: #fff;
        stroke-linecap: round;
        stroke-linejoin: bevel;
        stroke-width: 3px;
      }

      .cls-5 {
        fill: url(#linear-gradient-2);
      }

      .cls-6 {
        fill: url(#linear-gradient-25);
      }

      .cls-7 {
        fill: url(#linear-gradient-10);
      }

      .cls-8 {
        fill: url(#linear-gradient-12);
      }

      .cls-9, .cls-4 {
        fill: #fff;
      }

      .cls-10 {
        fill: url(#linear-gradient-4);
      }

      .cls-11 {
        fill: #5b6bf8;
      }

      .cls-12 {
        fill: url(#linear-gradient-3);
      }

      .cls-13 {
        fill: url(#linear-gradient-5);
      }

      .cls-14 {
        fill: url(#linear-gradient-22);
      }

      .cls-15 {
        fill: url(#linear-gradient-24);
      }

      .cls-16 {
        fill: url(#linear-gradient-8);
      }

      .cls-17 {
        fill: url(#linear-gradient-14);
      }

      .cls-18 {
        fill: url(#linear-gradient-20);
      }

      .cls-19 {
        fill: url(#linear-gradient-17);
      }

      .cls-20 {
        fill: url(#linear-gradient-7);
      }

      .cls-21 {
        fill: url(#linear-gradient-9);
      }

      .cls-22 {
        fill: url(#linear-gradient-11);
      }

      .cls-23 {
        fill: url(#linear-gradient-19);
      }

      .cls-24 {
        fill: url(#linear-gradient-6);
      }

      .cls-25 {
        fill: url(#linear-gradient-21);
      }

      .cls-26 {
        fill: url(#linear-gradient-16);
      }

      .cls-27 {
        fill: url(#linear-gradient);
      }

      .cls-28 {
        fill: url(#linear-gradient-23);
      }

      .cls-29 {
        fill: url(#linear-gradient-18);
      }
    </style>
    <linearGradient id="linear-gradient" x1="854.34" y1="71.19" x2="1416.98" y2="71.19" gradientUnits="userSpaceOnUse">
      <stop offset="0" stop-color="#14009f"/>
      <stop offset=".1" stop-color="#209"/>
      <stop offset=".33" stop-color="#3f008d"/>
      <stop offset=".56" stop-color="#540085"/>
      <stop offset=".78" stop-color="#600080"/>
      <stop offset="1" stop-color="#65007f"/>
    </linearGradient>
    <linearGradient id="linear-gradient-2" x1="854.34" y1="78.39" x2="1416.98" y2="78.39" xlink:href="#linear-gradient"/>
    <linearGradient id="linear-gradient-3" x1="854.34" y1="76.08" x2="1416.98" y2="76.08" xlink:href="#linear-gradient"/>
    <linearGradient id="linear-gradient-4" x1="854.34" y1="81.48" x2="1416.98" y2="81.48" xlink:href="#linear-gradient"/>
    <linearGradient id="linear-gradient-5" x1="854.34" y1="81.99" x2="1416.98" y2="81.99" xlink:href="#linear-gradient"/>
    <linearGradient id="linear-gradient-6" x1="854.34" y1="107.63" x2="1416.98" y2="107.63" xlink:href="#linear-gradient"/>
    <linearGradient id="linear-gradient-7" x1="854.34" y1="91.43" x2="1416.98" y2="91.43" xlink:href="#linear-gradient"/>
    <linearGradient id="linear-gradient-8" x1="854.34" y1="98.62" x2="1416.98" y2="98.62" xlink:href="#linear-gradient"/>
    <linearGradient id="linear-gradient-9" x1="854.34" y1="98.24" x2="1416.98" y2="98.24" xlink:href="#linear-gradient"/>
    <linearGradient id="linear-gradient-10" x1="854.34" y1="98.32" x2="1416.98" y2="98.32" xlink:href="#linear-gradient"/>
    <linearGradient id="linear-gradient-11" x1="854.34" y1="65.28" x2="1416.98" y2="65.28" xlink:href="#linear-gradient"/>
    <linearGradient id="linear-gradient-12" x1="854.34" y1="81.48" x2="1416.98" y2="81.48" xlink:href="#linear-gradient"/>
    <linearGradient id="linear-gradient-13" x1="854.34" y1="81.48" x2="1416.98" y2="81.48" xlink:href="#linear-gradient"/>
    <linearGradient id="linear-gradient-14" x1="854.34" y1="81.99" x2="1416.98" y2="81.99" xlink:href="#linear-gradient"/>
    <linearGradient id="linear-gradient-15" x1="854.34" y1="76.08" x2="1416.98" y2="76.08" xlink:href="#linear-gradient"/>
    <linearGradient id="linear-gradient-16" x1="854.34" y1="83.94" x2="1416.98" y2="83.94" xlink:href="#linear-gradient"/>
    <linearGradient id="linear-gradient-17" x1="854.34" y1="100.4" x2="1416.98" y2="100.4" xlink:href="#linear-gradient"/>
    <linearGradient id="linear-gradient-18" x1="854.34" y1="81.36" x2="1416.98" y2="81.36" xlink:href="#linear-gradient"/>
    <linearGradient id="linear-gradient-19" x1="854.34" y1="81.48" x2="1416.98" y2="81.48" xlink:href="#linear-gradient"/>
    <linearGradient id="linear-gradient-20" x1="854.34" y1="98.52" x2="1416.98" y2="98.52" xlink:href="#linear-gradient"/>
    <linearGradient id="linear-gradient-21" x1="854.34" y1="81.48" x2="1416.98" y2="81.48" xlink:href="#linear-gradient"/>
    <linearGradient id="linear-gradient-22" x1="854.34" y1="76.08" x2="1416.98" y2="76.08" xlink:href="#linear-gradient"/>
    <linearGradient id="linear-gradient-23" x1="854.34" y1="81.99" x2="1416.98" y2="81.99" xlink:href="#linear-gradient"/>
    <linearGradient id="linear-gradient-24" x1="854.34" y1="81.35" x2="1416.98" y2="81.35" xlink:href="#linear-gradient"/>
    <linearGradient id="linear-gradient-25" x1="854.34" y1="66.14" x2="1416.98" y2="66.14" xlink:href="#linear-gradient"/>
  </defs>
  <g id="Export">
    <g id="Layer_8_copy" data-name="Layer 8 copy">
      <g id="Layer_9_copy_2" data-name="Layer 9 copy 2">
        <g id="Layer_4_copy_2" data-name="Layer 4 copy 2">
          <rect class="cls-11" width="129.15" height="129.15" rx="16.34" ry="16.34"/>
        </g>
        <g id="Layer_5_copy_2" data-name="Layer 5 copy 2">
          <path class="cls-3" d="M19.2,90.35s16.56-51.44,31.68-51.55c15.27-.11,17.53,50.44,32.76,51.55,14.43,1.05,26.31-51.55,26.31-51.55"/>
        </g>
        <g id="Layer_6_copy_3" data-name="Layer 6 copy 3">
          <circle class="cls-4" cx="19.71" cy="89.23" r="3.11"/>
        </g>
        <g id="Layer_6_copy_3-2" data-name="Layer 6 copy 3">
          <circle class="cls-4" cx="109.67" cy="39.3" r="3.11"/>
        </g>
      </g>
      <g>
        <path d="M871.59,32.72s-.02,0-.03,0h.06s-.02,0-.03,0Z"/>
        <path d="M989.69,129.57s.02,0,.03,0h-.05s.01,0,.02,0Z"/>
        <path d="M867.82,34.24c-.86,1.01-1.29,2.53-1.29,4.56v65.46c0,1.73.43,3.06,1.29,3.99.86.94,2.12,1.41,3.77,1.41,1.8,0,3.11-.47,3.94-1.41.82-.94,1.24-2.27,1.24-3.99v-14.17l5.06-4.95,20.7,21.48c1.05.98,2.06,1.74,3.04,2.31.97.56,1.91.77,2.81.62.9-.15,1.72-.64,2.47-1.46.67-.75,1.07-1.56,1.18-2.42.11-.86-.04-1.76-.45-2.7-.41-.94-1.03-1.82-1.86-2.64l-20.22-21.82-2.5,2.47v-5.17l2.5,2.7,16.73-16.54c.9-.97,1.5-1.91,1.8-2.81.3-.9.34-1.76.11-2.59-.22-.82-.64-1.54-1.24-2.14-1.28-1.27-2.64-1.67-4.11-1.18-1.46.49-2.68,1.26-3.66,2.31l-22.38,21.82v-38.58c0-2.02-.43-3.54-1.29-4.56-.86-1.01-2.14-1.51-3.85-1.52h-.06c-1.64,0-2.88.51-3.74,1.52Z"/>
        <path class="cls-27" d="M867.82,34.24c-.86,1.01-1.29,2.53-1.29,4.56v65.46c0,1.73.43,3.06,1.29,3.99.86.94,2.12,1.41,3.77,1.41,1.8,0,3.11-.47,3.94-1.41.82-.94,1.24-2.27,1.24-3.99v-14.17l5.06-4.95,20.7,21.48c1.05.98,2.06,1.74,3.04,2.31.97.56,1.91.77,2.81.62.9-.15,1.72-.64,2.47-1.46.67-.75,1.07-1.56,1.18-2.42.11-.86-.04-1.76-.45-2.7-.41-.94-1.03-1.82-1.86-2.64l-20.22-21.82-2.5,2.47v-5.17l2.5,2.7,16.73-16.54c.9-.97,1.5-1.91,1.8-2.81.3-.9.34-1.76.11-2.59-.22-.82-.64-1.54-1.24-2.14-1.28-1.27-2.64-1.67-4.11-1.18-1.46.49-2.68,1.26-3.66,2.31l-22.38,21.82v-38.58c0-2.02-.43-3.54-1.29-4.56-.86-1.01-2.14-1.51-3.85-1.52h-.06c-1.64,0-2.88.51-3.74,1.52Z"/>
        <polygon points="887 80.97 889.5 78.5 887 75.8 887 80.97"/>
        <polygon class="cls-5" points="887 80.97 889.5 78.5 887 75.8 887 80.97"/>
        <path d="M962.14,75.35c-.59.17-1.21.33-1.82.49,0,.32.03.64.02.98l1.8-1.46Z"/>
        <path class="cls-12" d="M962.14,75.35c-.59.17-1.21.33-1.82.49,0,.32.03.64.02.98l1.8-1.46Z"/>
        <path d="M957.98,56.34c-3.75-2.17-8.17-3.26-13.27-3.26-3.9,0-7.48.68-10.74,2.02s-6.11,3.3-8.55,5.85c-2.44,2.55-4.31,5.55-5.62,9-1.31,3.45-1.97,7.31-1.97,11.59,0,5.85,1.14,10.89,3.43,15.13,2.29,4.24,5.55,7.5,9.79,9.79,4.24,2.29,9.32,3.43,15.24,3.43,3.15,0,6.28-.49,9.39-1.46,3.11-.97,5.79-2.29,8.04-3.94,1.05-.68,1.74-1.44,2.08-2.31.34-.86.39-1.7.17-2.53-.22-.82-.66-1.5-1.29-2.02-.64-.52-1.39-.82-2.25-.9-.86-.07-1.82.19-2.87.79-2.33,1.5-4.52,2.53-6.58,3.09-2.06.56-4.26.84-6.58.84-3.67,0-6.9-.71-9.67-2.14-2.78-1.42-4.93-3.62-6.47-6.58-1-1.93-1.66-4.22-1.97-6.84-.74.01-1.48.02-2.24.03l.23-7.87h2.01c.23-2.95.85-5.56,1.87-7.82,1.24-2.74,3.07-4.85,5.51-6.35,2.44-1.5,5.46-2.25,9.05-2.25,4.65,0,8.44,1.35,11.36,4.05,2.72,2.51,4.12,5.9,4.25,10.16.61-.16,1.23-.31,1.82-.49l-1.8,1.46c0-.33-.01-.65-.02-.98-2.81.72-5.85,1.26-9.14,1.59-4.01.41-8.14.62-12.37.62h-10.53c-.05.62-.09,1.26-.1,1.91l-.11,1.46c-.03,1.59.05,3.07.22,4.47,4.64-.07,8.8-.15,12.49-.25,4.27-.11,8.17-.28,11.7-.51,3.52-.22,6.86-.67,10.01-1.35,1.5-.3,2.81-.66,3.94-1.07,1.12-.41,1.99-1.03,2.59-1.86.6-.82.9-1.95.9-3.37,0-4.57-1.05-8.7-3.15-12.37-2.1-3.67-5.03-6.6-8.77-8.77Z"/>
        <path class="cls-10" d="M957.98,56.34c-3.75-2.17-8.17-3.26-13.27-3.26-3.9,0-7.48.68-10.74,2.02s-6.11,3.3-8.55,5.85c-2.44,2.55-4.31,5.55-5.62,9-1.31,3.45-1.97,7.31-1.97,11.59,0,5.85,1.14,10.89,3.43,15.13,2.29,4.24,5.55,7.5,9.79,9.79,4.24,2.29,9.32,3.43,15.24,3.43,3.15,0,6.28-.49,9.39-1.46,3.11-.97,5.79-2.29,8.04-3.94,1.05-.68,1.74-1.44,2.08-2.31.34-.86.39-1.7.17-2.53-.22-.82-.66-1.5-1.29-2.02-.64-.52-1.39-.82-2.25-.9-.86-.07-1.82.19-2.87.79-2.33,1.5-4.52,2.53-6.58,3.09-2.06.56-4.26.84-6.58.84-3.67,0-6.9-.71-9.67-2.14-2.78-1.42-4.93-3.62-6.47-6.58-1-1.93-1.66-4.22-1.97-6.84-.74.01-1.48.02-2.24.03l.23-7.87h2.01c.23-2.95.85-5.56,1.87-7.82,1.24-2.74,3.07-4.85,5.51-6.35,2.44-1.5,5.46-2.25,9.05-2.25,4.65,0,8.44,1.35,11.36,4.05,2.72,2.51,4.12,5.9,4.25,10.16.61-.16,1.23-.31,1.82-.49l-1.8,1.46c0-.33-.01-.65-.02-.98-2.81.72-5.85,1.26-9.14,1.59-4.01.41-8.14.62-12.37.62h-10.53c-.05.62-.09,1.26-.1,1.91l-.11,1.46c-.03,1.59.05,3.07.22,4.47,4.64-.07,8.8-.15,12.49-.25,4.27-.11,8.17-.28,11.7-.51,3.52-.22,6.86-.67,10.01-1.35,1.5-.3,2.81-.66,3.94-1.07,1.12-.41,1.99-1.03,2.59-1.86.6-.82.9-1.95.9-3.37,0-4.57-1.05-8.7-3.15-12.37-2.1-3.67-5.03-6.6-8.77-8.77Z"/>
        <path d="M928.17,79.96c.01-.65.05-1.29.1-1.91h-2.01l-.23,7.87c.76-.01,1.51-.02,2.24-.03-.17-1.39-.25-2.88-.22-4.47l.11-1.46Z"/>
        <path class="cls-13" d="M928.17,79.96c.01-.65.05-1.29.1-1.91h-2.01l-.23,7.87c.76-.01,1.51-.02,2.24-.03-.17-1.39-.25-2.88-.22-4.47l.11-1.46Z"/>
        <polygon points="998.69 105.38 997.7 107.59 998.69 109.88 998.69 105.38"/>
        <polygon class="cls-24" points="998.69 105.38 997.7 107.59 998.69 109.88 998.69 105.38"/>
        <path d="M997.74,126.92c1.24-.94,2.38-2.18,3.43-3.71,1.05-1.54,2.06-3.43,3.04-5.68l24.75-57.03c.6-1.27.82-2.46.67-3.54-.15-1.09-.6-1.97-1.35-2.64-.75-.68-1.76-1.01-3.04-1.01-1.5,0-2.66.3-3.49.9-.83.6-1.54,1.69-2.14,3.26l-16.19,39.24,1.56,3.84h-3.15l1.58-3.84-15.98-39.24c-.6-1.58-1.29-2.66-2.08-3.26-.79-.6-1.86-.9-3.21-.9-1.57,0-2.79.34-3.66,1.01-.86.68-1.39,1.56-1.57,2.64-.19,1.09-.02,2.31.51,3.66l20.27,46.97.99-2.21v4.5l-.99-2.29-3.4,7.58c-.83,1.87-1.63,3.22-2.42,4.05-.79.82-1.59,1.24-2.42,1.24s-1.67.15-2.53.45c-.86.3-1.54.77-2.02,1.41-.49.64-.77,1.44-.84,2.42-.08,1.42.41,2.59,1.46,3.49,1.05.9,2.43,1.35,4.15,1.35h.05c1.49,0,2.88-.21,4.19-.62,1.31-.41,2.59-1.09,3.82-2.02Z"/>
        <path class="cls-20" d="M997.74,126.92c1.24-.94,2.38-2.18,3.43-3.71,1.05-1.54,2.06-3.43,3.04-5.68l24.75-57.03c.6-1.27.82-2.46.67-3.54-.15-1.09-.6-1.97-1.35-2.64-.75-.68-1.76-1.01-3.04-1.01-1.5,0-2.66.3-3.49.9-.83.6-1.54,1.69-2.14,3.26l-16.19,39.24,1.56,3.84h-3.15l1.58-3.84-15.98-39.24c-.6-1.58-1.29-2.66-2.08-3.26-.79-.6-1.86-.9-3.21-.9-1.57,0-2.79.34-3.66,1.01-.86.68-1.39,1.56-1.57,2.64-.19,1.09-.02,2.31.51,3.66l20.27,46.97.99-2.21v4.5l-.99-2.29-3.4,7.58c-.83,1.87-1.63,3.22-2.42,4.05-.79.82-1.59,1.24-2.42,1.24s-1.67.15-2.53.45c-.86.3-1.54.77-2.02,1.41-.49.64-.77,1.44-.84,2.42-.08,1.42.41,2.59,1.46,3.49,1.05.9,2.43,1.35,4.15,1.35h.05c1.49,0,2.88-.21,4.19-.62,1.31-.41,2.59-1.09,3.82-2.02Z"/>
        <polygon points="1004.99 100.55 1003.43 96.7 1001.84 100.55 1004.99 100.55"/>
        <polygon class="cls-16" points="1004.99 100.55 1003.43 96.7 1001.84 100.55 1004.99 100.55"/>
        <polygon points="1062.69 100.32 1061.36 96.15 1059.99 100.32 1062.69 100.32"/>
        <polygon class="cls-21" points="1062.69 100.32 1061.36 96.15 1059.99 100.32 1062.69 100.32"/>
        <polygon points="1098.69 100.32 1097.4 96.31 1096.1 100.32 1098.69 100.32"/>
        <polygon class="cls-7" points="1098.69 100.32 1097.4 96.31 1096.1 100.32 1098.69 100.32"/>
        <polygon points="1076.53 61.29 1079.18 69.27 1081.82 61.29 1076.53 61.29"/>
        <polygon class="cls-22" points="1076.53 61.29 1079.18 69.27 1081.82 61.29 1076.53 61.29"/>
        <path d="M1118.43,54.32c-.71-.68-1.78-1.01-3.21-1.01-.9,0-1.88.26-2.92.79-1.05.53-1.8,1.61-2.25,3.26l-12.65,38.96,1.29,4.01h-2.59l1.3-4.01-12.55-39.07c-.38-1.35-1.03-2.34-1.97-2.98-.94-.64-2.08-.96-3.43-.96-1.28,0-2.36.32-3.26.96-.9.64-1.61,1.63-2.14,2.98l-12.7,38.91,1.34,4.17h-2.7l1.36-4.17-12.38-38.57c-.45-1.72-1.18-2.87-2.19-3.43s-1.97-.84-2.87-.84c-2.02,0-3.47.66-4.33,1.97-.86,1.31-.92,3.09-.17,5.34l15.19,44.32c.6,1.73,1.46,2.94,2.59,3.66s2.4,1.07,3.82,1.07c1.58,0,2.91-.39,3.99-1.18,1.09-.79,1.89-1.97,2.42-3.54l11.76-35.66-2.65-7.98h5.29l-2.63,7.98,11.86,35.66c.52,1.57,1.37,2.76,2.53,3.54,1.16.79,2.45,1.18,3.88,1.18s2.72-.38,3.88-1.12c1.16-.75,2.01-1.95,2.53-3.6l15.19-44.32c.45-1.27.64-2.48.56-3.6-.08-1.12-.47-2.02-1.18-2.7Z"/>
        <path class="cls-8" d="M1118.43,54.32c-.71-.68-1.78-1.01-3.21-1.01-.9,0-1.88.26-2.92.79-1.05.53-1.8,1.61-2.25,3.26l-12.65,38.96,1.29,4.01h-2.59l1.3-4.01-12.55-39.07c-.38-1.35-1.03-2.34-1.97-2.98-.94-.64-2.08-.96-3.43-.96-1.28,0-2.36.32-3.26.96-.9.64-1.61,1.63-2.14,2.98l-12.7,38.91,1.34,4.17h-2.7l1.36-4.17-12.38-38.57c-.45-1.72-1.18-2.87-2.19-3.43s-1.97-.84-2.87-.84c-2.02,0-3.47.66-4.33,1.97-.86,1.31-.92,3.09-.17,5.34l15.19,44.32c.6,1.73,1.46,2.94,2.59,3.66s2.4,1.07,3.82,1.07c1.58,0,2.91-.39,3.99-1.18,1.09-.79,1.89-1.97,2.42-3.54l11.76-35.66-2.65-7.98h5.29l-2.63,7.98,11.86,35.66c.52,1.57,1.37,2.76,2.53,3.54,1.16.79,2.45,1.18,3.88,1.18s2.72-.38,3.88-1.12c1.16-.75,2.01-1.95,2.53-3.6l15.19-44.32c.45-1.27.64-2.48.56-3.6-.08-1.12-.47-2.02-1.18-2.7Z"/>
        <path d="M1167.08,56.34c-3.75-2.17-8.17-3.26-13.27-3.26-3.9,0-7.48.68-10.74,2.02-3.26,1.35-6.11,3.3-8.55,5.85-2.44,2.55-4.31,5.55-5.62,9-1.31,3.45-1.97,7.31-1.97,11.59,0,5.85,1.14,10.89,3.43,15.13,2.29,4.24,5.55,7.5,9.79,9.79,4.24,2.29,9.32,3.43,15.24,3.43,3.15,0,6.28-.49,9.39-1.46,3.11-.97,5.79-2.29,8.04-3.94,1.05-.68,1.74-1.44,2.08-2.31.34-.86.39-1.7.17-2.53-.23-.82-.66-1.5-1.29-2.02-.64-.52-1.39-.82-2.25-.9-.86-.07-1.82.19-2.87.79-2.33,1.5-4.52,2.53-6.58,3.09-2.06.56-4.26.84-6.58.84-3.67,0-6.9-.71-9.67-2.14-2.78-1.42-4.93-3.62-6.47-6.58-1-1.93-1.66-4.22-1.97-6.84-.74.01-1.48.02-2.24.03l.22-7.87h2.01c.23-2.95.85-5.56,1.87-7.82,1.24-2.74,3.07-4.85,5.51-6.35,2.44-1.5,5.46-2.25,9.05-2.25,4.65,0,8.44,1.35,11.36,4.05,2.72,2.51,4.12,5.9,4.25,10.16.61-.16,1.23-.31,1.82-.49l-1.8,1.46c0-.33-.01-.65-.02-.98-2.81.72-5.85,1.26-9.14,1.59-4.01.41-8.14.62-12.37.62h-10.53c-.05.62-.09,1.26-.1,1.91l-.11,1.46c-.03,1.59.05,3.07.22,4.47,4.64-.07,8.8-.15,12.49-.25,4.27-.11,8.17-.28,11.7-.51,3.52-.22,6.86-.67,10.01-1.35,1.5-.3,2.81-.66,3.94-1.07,1.12-.41,1.99-1.03,2.59-1.86.6-.82.9-1.95.9-3.37,0-4.57-1.05-8.7-3.15-12.37-2.1-3.67-5.03-6.6-8.77-8.77Z"/>
        <path class="cls-2" d="M1167.08,56.34c-3.75-2.17-8.17-3.26-13.27-3.26-3.9,0-7.48.68-10.74,2.02-3.26,1.35-6.11,3.3-8.55,5.85-2.44,2.55-4.31,5.55-5.62,9-1.31,3.45-1.97,7.31-1.97,11.59,0,5.85,1.14,10.89,3.43,15.13,2.29,4.24,5.55,7.5,9.79,9.79,4.24,2.29,9.32,3.43,15.24,3.43,3.15,0,6.28-.49,9.39-1.46,3.11-.97,5.79-2.29,8.04-3.94,1.05-.68,1.74-1.44,2.08-2.31.34-.86.39-1.7.17-2.53-.23-.82-.66-1.5-1.29-2.02-.64-.52-1.39-.82-2.25-.9-.86-.07-1.82.19-2.87.79-2.33,1.5-4.52,2.53-6.58,3.09-2.06.56-4.26.84-6.58.84-3.67,0-6.9-.71-9.67-2.14-2.78-1.42-4.93-3.62-6.47-6.58-1-1.93-1.66-4.22-1.97-6.84-.74.01-1.48.02-2.24.03l.22-7.87h2.01c.23-2.95.85-5.56,1.87-7.82,1.24-2.74,3.07-4.85,5.51-6.35,2.44-1.5,5.46-2.25,9.05-2.25,4.65,0,8.44,1.35,11.36,4.05,2.72,2.51,4.12,5.9,4.25,10.16.61-.16,1.23-.31,1.82-.49l-1.8,1.46c0-.33-.01-.65-.02-.98-2.81.72-5.85,1.26-9.14,1.59-4.01.41-8.14.62-12.37.62h-10.53c-.05.62-.09,1.26-.1,1.91l-.11,1.46c-.03,1.59.05,3.07.22,4.47,4.64-.07,8.8-.15,12.49-.25,4.27-.11,8.17-.28,11.7-.51,3.52-.22,6.86-.67,10.01-1.35,1.5-.3,2.81-.66,3.94-1.07,1.12-.41,1.99-1.03,2.59-1.86.6-.82.9-1.95.9-3.37,0-4.57-1.05-8.7-3.15-12.37-2.1-3.67-5.03-6.6-8.77-8.77Z"/>
        <path d="M1137.27,79.96c.01-.65.05-1.29.1-1.91h-2.01l-.22,7.87c.76-.01,1.51-.02,2.24-.03-.17-1.39-.25-2.88-.22-4.47l.11-1.46Z"/>
        <path class="cls-17" d="M1137.27,79.96c.01-.65.05-1.29.1-1.91h-2.01l-.22,7.87c.76-.01,1.51-.02,2.24-.03-.17-1.39-.25-2.88-.22-4.47l.11-1.46Z"/>
        <path d="M1171.24,75.35c-.59.17-1.21.33-1.82.49,0,.32.03.64.02.98l1.8-1.46Z"/>
        <path class="cls-1" d="M1171.24,75.35c-.59.17-1.21.33-1.82.49,0,.32.03.64.02.98l1.8-1.46Z"/>
        <polygon points="1223.65 87.16 1223.99 81.54 1222.42 80.72 1222.42 86.61 1223.65 87.16"/>
        <polygon class="cls-26" points="1223.65 87.16 1223.99 81.54 1222.42 80.72 1222.42 86.61 1223.65 87.16"/>
        <path d="M1222.64,98.86v3.08c.43-.93.77-1.96,1.01-3.08h-1.01Z"/>
        <path class="cls-19" d="M1222.64,98.86v3.08c.43-.93.77-1.96,1.01-3.08h-1.01Z"/>
        <path d="M1222.75,55.22c-3.23-1.58-7.16-2.36-11.81-2.36-1.57-.07-3.43.1-5.57.51-2.14.41-4.31,1.12-6.52,2.14-2.21,1.01-4.26,2.38-6.13,4.11-.98.75-1.59,1.59-1.86,2.53-.26.94-.26,1.82,0,2.64.26.83.73,1.5,1.41,2.02.68.53,1.48.79,2.42.79s1.93-.41,2.98-1.24c1.65-1.42,3.28-2.53,4.89-3.32,1.61-.79,3.11-1.33,4.5-1.63,1.39-.3,2.6-.45,3.66-.45,3.67,0,6.54,1.01,8.6,3.04,2.06,2.02,3.09,5.21,3.09,9.56v7.17l1.58.81-.34,5.62-1.24-.55v2.57c0,2.25-.45,4.2-1.35,5.85-.9,1.65-2.08,3.02-3.54,4.11-1.46,1.09-3.06,1.87-4.78,2.36-1.73.49-3.34.73-4.84.73-3.53,0-6.3-.92-8.32-2.76-2.02-1.84-3.04-4.18-3.04-7.03,0-2.02.58-3.79,1.74-5.29,1.16-1.5,2.79-2.64,4.89-3.43,2.1-.79,4.55-1.09,7.37-.9,2.81.19,5.83,1.03,9.05,2.53l2.81,1.25v-5.89l-2.14-1.1c-3.98-2.17-7.91-3.37-11.81-3.6-3.9-.22-7.44.34-10.63,1.69-3.19,1.35-5.78,3.32-7.76,5.91-1.99,2.59-2.98,5.57-2.98,8.94-.08,3.08.66,5.92,2.19,8.55,1.54,2.63,3.73,4.74,6.58,6.35,2.85,1.61,6.19,2.42,10.01,2.42,3,0,5.7-.34,8.1-1.01,2.4-.68,4.46-1.82,6.19-3.43,1.03-.96,1.85-2.13,2.47-3.5v-3.08h1.01c-.24,1.13-.58,2.15-1.01,3.08v2.88c0,.98.19,1.84.56,2.59.37.75.94,1.31,1.69,1.69.75.37,1.69.56,2.81.56,1.58,0,2.77-.45,3.6-1.35.82-.9,1.24-2.1,1.24-3.6v-29.92c0-5.02-.83-9.15-2.47-12.37-1.65-3.22-4.09-5.62-7.31-7.2Z"/>
        <path class="cls-29" d="M1222.75,55.22c-3.23-1.58-7.16-2.36-11.81-2.36-1.57-.07-3.43.1-5.57.51-2.14.41-4.31,1.12-6.52,2.14-2.21,1.01-4.26,2.38-6.13,4.11-.98.75-1.59,1.59-1.86,2.53-.26.94-.26,1.82,0,2.64.26.83.73,1.5,1.41,2.02.68.53,1.48.79,2.42.79s1.93-.41,2.98-1.24c1.65-1.42,3.28-2.53,4.89-3.32,1.61-.79,3.11-1.33,4.5-1.63,1.39-.3,2.6-.45,3.66-.45,3.67,0,6.54,1.01,8.6,3.04,2.06,2.02,3.09,5.21,3.09,9.56v7.17l1.58.81-.34,5.62-1.24-.55v2.57c0,2.25-.45,4.2-1.35,5.85-.9,1.65-2.08,3.02-3.54,4.11-1.46,1.09-3.06,1.87-4.78,2.36-1.73.49-3.34.73-4.84.73-3.53,0-6.3-.92-8.32-2.76-2.02-1.84-3.04-4.18-3.04-7.03,0-2.02.58-3.79,1.74-5.29,1.16-1.5,2.79-2.64,4.89-3.43,2.1-.79,4.55-1.09,7.37-.9,2.81.19,5.83,1.03,9.05,2.53l2.81,1.25v-5.89l-2.14-1.1c-3.98-2.17-7.91-3.37-11.81-3.6-3.9-.22-7.44.34-10.63,1.69-3.19,1.35-5.78,3.32-7.76,5.91-1.99,2.59-2.98,5.57-2.98,8.94-.08,3.08.66,5.92,2.19,8.55,1.54,2.63,3.73,4.74,6.58,6.35,2.85,1.61,6.19,2.42,10.01,2.42,3,0,5.7-.34,8.1-1.01,2.4-.68,4.46-1.82,6.19-3.43,1.03-.96,1.85-2.13,2.47-3.5v-3.08h1.01c-.24,1.13-.58,2.15-1.01,3.08v2.88c0,.98.19,1.84.56,2.59.37.75.94,1.31,1.69,1.69.75.37,1.69.56,2.81.56,1.58,0,2.77-.45,3.6-1.35.82-.9,1.24-2.1,1.24-3.6v-29.92c0-5.02-.83-9.15-2.47-12.37-1.65-3.22-4.09-5.62-7.31-7.2Z"/>
        <path d="M1292.72,54.32c-.75-.68-1.76-1.01-3.04-1.01-1.5,0-2.64.3-3.43.9-.79.6-1.52,1.69-2.19,3.26l-16.19,39.14,1.56,3.83h-3.15l1.58-3.83-15.98-39.14c-.6-1.58-1.29-2.66-2.08-3.26-.79-.6-1.86-.9-3.21-.9-1.57,0-2.79.34-3.66,1.01-.86.68-1.37,1.56-1.52,2.64-.15,1.09.04,2.31.56,3.66l19.01,44.2c.75,1.65,1.67,2.87,2.76,3.66,1.09.79,2.38,1.18,3.88,1.18s2.81-.39,3.94-1.18c1.12-.79,2.02-2.01,2.7-3.66l19.12-44.32c.6-1.27.82-2.46.67-3.54-.15-1.09-.6-1.97-1.35-2.64Z"/>
        <path class="cls-23" d="M1292.72,54.32c-.75-.68-1.76-1.01-3.04-1.01-1.5,0-2.64.3-3.43.9-.79.6-1.52,1.69-2.19,3.26l-16.19,39.14,1.56,3.83h-3.15l1.58-3.83-15.98-39.14c-.6-1.58-1.29-2.66-2.08-3.26-.79-.6-1.86-.9-3.21-.9-1.57,0-2.79.34-3.66,1.01-.86.68-1.37,1.56-1.52,2.64-.15,1.09.04,2.31.56,3.66l19.01,44.2c.75,1.65,1.67,2.87,2.76,3.66,1.09.79,2.38,1.18,3.88,1.18s2.81-.39,3.94-1.18c1.12-.79,2.02-2.01,2.7-3.66l19.12-44.32c.6-1.27.82-2.46.67-3.54-.15-1.09-.6-1.97-1.35-2.64Z"/>
        <polygon points="1269.44 100.43 1267.87 96.6 1266.29 100.43 1269.44 100.43"/>
        <polygon class="cls-18" points="1269.44 100.43 1267.87 96.6 1266.29 100.43 1269.44 100.43"/>
        <path d="M1340.64,56.34c-3.75-2.17-8.17-3.26-13.27-3.26-3.9,0-7.48.68-10.74,2.02-3.26,1.35-6.11,3.3-8.55,5.85-2.44,2.55-4.31,5.55-5.62,9-1.31,3.45-1.97,7.31-1.97,11.59,0,5.85,1.14,10.89,3.43,15.13,2.29,4.24,5.55,7.5,9.79,9.79,4.24,2.29,9.32,3.43,15.24,3.43,3.15,0,6.28-.49,9.39-1.46,3.11-.97,5.79-2.29,8.04-3.94,1.05-.68,1.74-1.44,2.08-2.31.34-.86.39-1.7.17-2.53-.23-.82-.66-1.5-1.29-2.02-.64-.52-1.39-.82-2.25-.9-.86-.07-1.82.19-2.87.79-2.33,1.5-4.52,2.53-6.58,3.09-2.06.56-4.26.84-6.58.84-3.67,0-6.9-.71-9.67-2.14-2.78-1.42-4.93-3.62-6.47-6.58-1-1.93-1.66-4.22-1.97-6.84-.74.01-1.48.02-2.24.03l.22-7.87h2.01c.23-2.95.85-5.56,1.87-7.82,1.24-2.74,3.07-4.85,5.51-6.35,2.44-1.5,5.46-2.25,9.05-2.25,4.65,0,8.44,1.35,11.36,4.05,2.72,2.51,4.12,5.9,4.25,10.16.61-.16,1.23-.31,1.82-.49l-1.8,1.46c0-.33-.01-.65-.02-.98-2.81.72-5.85,1.26-9.14,1.59-4.01.41-8.14.62-12.37.62h-10.53c-.05.62-.09,1.26-.1,1.91l-.11,1.46c-.03,1.59.05,3.07.22,4.47,4.64-.07,8.8-.15,12.49-.25,4.27-.11,8.17-.28,11.7-.51,3.52-.22,6.86-.67,10.01-1.35,1.5-.3,2.81-.66,3.94-1.07,1.12-.41,1.99-1.03,2.59-1.86.6-.82.9-1.95.9-3.37,0-4.57-1.05-8.7-3.15-12.37-2.1-3.67-5.03-6.6-8.77-8.77Z"/>
        <path class="cls-25" d="M1340.64,56.34c-3.75-2.17-8.17-3.26-13.27-3.26-3.9,0-7.48.68-10.74,2.02-3.26,1.35-6.11,3.3-8.55,5.85-2.44,2.55-4.31,5.55-5.62,9-1.31,3.45-1.97,7.31-1.97,11.59,0,5.85,1.14,10.89,3.43,15.13,2.29,4.24,5.55,7.5,9.79,9.79,4.24,2.29,9.32,3.43,15.24,3.43,3.15,0,6.28-.49,9.39-1.46,3.11-.97,5.79-2.29,8.04-3.94,1.05-.68,1.74-1.44,2.08-2.31.34-.86.39-1.7.17-2.53-.23-.82-.66-1.5-1.29-2.02-.64-.52-1.39-.82-2.25-.9-.86-.07-1.82.19-2.87.79-2.33,1.5-4.52,2.53-6.58,3.09-2.06.56-4.26.84-6.58.84-3.67,0-6.9-.71-9.67-2.14-2.78-1.42-4.93-3.62-6.47-6.58-1-1.93-1.66-4.22-1.97-6.84-.74.01-1.48.02-2.24.03l.22-7.87h2.01c.23-2.95.85-5.56,1.87-7.82,1.24-2.74,3.07-4.85,5.51-6.35,2.44-1.5,5.46-2.25,9.05-2.25,4.65,0,8.44,1.35,11.36,4.05,2.72,2.51,4.12,5.9,4.25,10.16.61-.16,1.23-.31,1.82-.49l-1.8,1.46c0-.33-.01-.65-.02-.98-2.81.72-5.85,1.26-9.14,1.59-4.01.41-8.14.62-12.37.62h-10.53c-.05.62-.09,1.26-.1,1.91l-.11,1.46c-.03,1.59.05,3.07.22,4.47,4.64-.07,8.8-.15,12.49-.25,4.27-.11,8.17-.28,11.7-.51,3.52-.22,6.86-.67,10.01-1.35,1.5-.3,2.81-.66,3.94-1.07,1.12-.41,1.99-1.03,2.59-1.86.6-.82.9-1.95.9-3.37,0-4.57-1.05-8.7-3.15-12.37-2.1-3.67-5.03-6.6-8.77-8.77Z"/>
        <path d="M1344.8,75.35c-.59.17-1.21.33-1.82.49,0,.32.03.64.02.98l1.8-1.46Z"/>
        <path class="cls-14" d="M1344.8,75.35c-.59.17-1.21.33-1.82.49,0,.32.03.64.02.98l1.8-1.46Z"/>
        <path d="M1310.83,79.96c.01-.65.05-1.29.1-1.91h-2.01l-.22,7.87c.76-.01,1.51-.02,2.24-.03-.17-1.39-.25-2.88-.22-4.47l.11-1.46Z"/>
        <path class="cls-28" d="M1310.83,79.96c.01-.65.05-1.29.1-1.91h-2.01l-.22,7.87c.76-.01,1.51-.02,2.24-.03-.17-1.39-.25-2.88-.22-4.47l.11-1.46Z"/>
        <path d="M1392.38,54.65c-.6-.6-1.33-1.03-2.19-1.29-.86-.26-1.78-.35-2.76-.28-3.08.15-5.59.92-7.54,2.31-1.95,1.39-3.51,3.15-4.67,5.29-.65,1.19-1.22,2.46-1.74,3.8v3.34h-1.12c.33-1.16.71-2.27,1.12-3.34v-5.21c0-1.8-.47-3.28-1.41-4.44-.94-1.16-2.23-1.74-3.88-1.74-1.28,0-2.4.47-3.37,1.41-.98.94-1.46,2.31-1.46,4.11v45.56c0,1.73.45,3.08,1.35,4.05.9.97,2.06,1.46,3.49,1.46,1.8,0,3.15-.49,4.05-1.46.9-.97,1.35-2.32,1.35-4.05v-25.65c0-3.15.36-5.85,1.07-8.1.71-2.25,2.06-4.03,4.05-5.34,1.99-1.31,4.82-2.12,8.49-2.42l1.8-.22c.97-.15,1.82-.49,2.53-1.01.71-.52,1.24-1.16,1.58-1.91.34-.75.43-1.54.28-2.36-.08-1.05-.41-1.87-1.01-2.47Z"/>
        <path class="cls-15" d="M1392.38,54.65c-.6-.6-1.33-1.03-2.19-1.29-.86-.26-1.78-.35-2.76-.28-3.08.15-5.59.92-7.54,2.31-1.95,1.39-3.51,3.15-4.67,5.29-.65,1.19-1.22,2.46-1.74,3.8v3.34h-1.12c.33-1.16.71-2.27,1.12-3.34v-5.21c0-1.8-.47-3.28-1.41-4.44-.94-1.16-2.23-1.74-3.88-1.74-1.28,0-2.4.47-3.37,1.41-.98.94-1.46,2.31-1.46,4.11v45.56c0,1.73.45,3.08,1.35,4.05.9.97,2.06,1.46,3.49,1.46,1.8,0,3.15-.49,4.05-1.46.9-.97,1.35-2.32,1.35-4.05v-25.65c0-3.15.36-5.85,1.07-8.1.71-2.25,2.06-4.03,4.05-5.34,1.99-1.31,4.82-2.12,8.49-2.42l1.8-.22c.97-.15,1.82-.49,2.53-1.01.71-.52,1.24-1.16,1.58-1.91.34-.75.43-1.54.28-2.36-.08-1.05-.41-1.87-1.01-2.47Z"/>
        <path d="M1373.48,67.81v-3.34c-.41,1.07-.79,2.18-1.12,3.34h1.12Z"/>
        <path class="cls-6" d="M1373.48,67.81v-3.34c-.41,1.07-.79,2.18-1.12,3.34h1.12Z"/>
      </g>
    </g>
    <g id="Layer_10_copy" data-name="Layer 10 copy">
      <g>
        <path class="cls-9" d="M206.84,114.42c-26.87,0-50.41-20.35-50.41-51.74s23.54-51.74,50.41-51.74c11.44,0,20.08,3.06,26.86,6.78v18.75c-7.85-5.19-15.16-8.11-25.14-8.11-17.42,0-33.12,13.17-33.12,34.31s15.69,34.45,33.12,34.45c9.97,0,17.29-3.33,25.14-8.51v19.02c-6.78,3.72-15.43,6.78-26.86,6.78Z"/>
        <path class="cls-9" d="M241.02,83.17v-44.02h18.35v44.02c0,9.18,5.05,14.23,13.7,14.23s14.1-5.05,14.1-14.36v-43.89h18.35v43.89c0,18.22-12.37,31.12-32.45,31.12s-32.05-12.9-32.05-30.99Z"/>
        <path class="cls-9" d="M312.84,75.99c0-23.41,16.36-38.57,36.31-38.57,18.22,0,33.12,12.77,33.12,36.97,0,2.53-.27,4.65-.53,6.65h-51.2c2.53,11.84,11.97,18.22,23.94,18.22,8.11,0,16.09-2.93,23.27-7.98v15.69c-7.45,4.66-16.09,7.18-25.4,7.18-24.74,0-39.5-15.83-39.5-38.17ZM364.71,69.47c-.27-11.3-7.18-17.29-15.69-17.29-9.04,0-16.76,6.65-18.75,17.29h34.45Z"/>
        <path class="cls-9" d="M489.99,63.75v48.54h-18.35v-44.95c0-8.78-3.19-13.17-11.04-13.17s-12.1,5.85-12.1,12.63v45.48h-18.35v-44.95c0-8.78-3.19-13.17-11.17-13.17s-12.1,6.38-12.1,13.43v44.69h-18.35V39.15h14.23l2,10.37h.4c3.72-6.65,10.24-12.1,19.95-12.1,10.37,0,16.89,4.79,20.48,12.5,4.66-7.71,11.57-12.5,21.01-12.5,15.96,0,23.41,10.51,23.41,26.33Z"/>
        <path class="cls-9" d="M497.44,75.86c0-23.27,16.09-38.44,32.72-38.44,10.77,0,19.55,5.32,24.6,13.7h.13l1.86-11.97h15.43v73.15h-15.43l-1.86-11.97h-.13c-5.05,8.38-13.83,13.83-24.6,13.83-16.62,0-32.72-15.29-32.72-38.3ZM535.21,97.4c10.77,0,18.89-8.91,18.89-21.68s-8.11-21.68-18.89-21.68-19.28,9.04-19.28,21.68,8.25,21.68,19.28,21.68Z"/>
        <path class="cls-9" d="M580.7,39.15h14.63l1.86,11.17h.27c4.92-9.04,13.7-11.97,20.22-11.97,1.99,0,3.72.13,5.32.53v17.16c-2-.4-3.86-.53-5.85-.53-9.18,0-18.09,5.19-18.09,19.15v37.64h-18.35V39.15Z"/>
        <path class="cls-9" d="M667.94,73.99l31.12,38.3h-22.74l-28.73-36.04v36.04h-18.35V5.63h18.35v67.29l28.46-33.78h22.08l-30.19,34.84Z"/>
      </g>
    </g>
    <g id="Layer_12_copy" data-name="Layer 12 copy">
      <g>
        <path class="cls-9" d="M755.19,109.28c-4.63,0-8.64-.96-12.02-2.88-3.38-1.92-5.64-4.63-6.78-8.12l1.17-1.71v7.37c0,1.64-.39,2.9-1.17,3.79-.78.89-1.96,1.34-3.53,1.34s-2.78-.45-3.63-1.34c-.85-.89-1.28-2.15-1.28-3.79v-62.92c0-1.35.43-2.53,1.28-3.53.85-1,2.06-1.5,3.63-1.5s2.87.5,3.69,1.5c.82,1,1.23,2.17,1.23,3.53v26.81h-1.28c1.14-3.85,3.38-6.89,6.73-9.13,3.35-2.24,7.33-3.37,11.96-3.37s8.62,1.09,11.96,3.26c3.35,2.17,5.91,5.27,7.69,9.29,1.78,4.02,2.67,8.81,2.67,14.37s-.91,10.27-2.72,14.37c-1.82,4.1-4.4,7.23-7.74,9.4-3.35,2.17-7.3,3.26-11.86,3.26ZM752.73,101.37c3.06,0,5.73-.73,8.01-2.19,2.28-1.46,4.04-3.61,5.29-6.46,1.24-2.85,1.87-6.34,1.87-10.47,0-6.2-1.37-10.91-4.11-14.15-2.74-3.24-6.43-4.86-11.06-4.86-3.06,0-5.7.68-7.9,2.03-2.21,1.35-3.92,3.2-5.13,5.55-1.21,2.35-1.92,5.02-2.14,8.01,0,.71.02,1.64.05,2.78.04,1.14.07,2.35.11,3.63.04,1.28.09,2.42.16,3.42.07,1,.14,1.71.21,2.14.5,2.14,1.44,4.01,2.83,5.61s3.11,2.83,5.18,3.69c2.06.85,4.27,1.28,6.62,1.28Z"/>
        <path class="cls-9" d="M796.42,127.97c-1.64,0-2.96-.43-3.95-1.28-1-.85-1.46-1.96-1.39-3.31.07-.93.34-1.69.8-2.3.46-.61,1.1-1.05,1.92-1.34.82-.29,1.62-.43,2.4-.43s1.55-.39,2.3-1.18c.75-.78,1.51-2.07,2.3-3.85l4.17-9.29v4.27l-20.19-46.79c-.5-1.28-.66-2.44-.48-3.47.18-1.03.68-1.87,1.5-2.51.82-.64,1.98-.96,3.47-.96,1.28,0,2.3.29,3.04.85.75.57,1.41,1.6,1.98,3.1l16.66,40.91h-2.99l16.88-40.91c.57-1.5,1.25-2.53,2.03-3.1.78-.57,1.89-.85,3.31-.85,1.21,0,2.17.32,2.88.96.71.64,1.14,1.48,1.28,2.51.14,1.03-.07,2.15-.64,3.36l-23.5,54.16c-.93,2.14-1.89,3.93-2.88,5.39-1,1.46-2.08,2.63-3.26,3.53-1.18.89-2.39,1.53-3.63,1.92-1.25.39-2.58.59-4.01.59Z"/>
      </g>
    </g>
  </g>
</svg>