<?xml version="1.0" encoding="UTF-8"?>
<svg id="Layer_2" data-name="Layer 2" xmlns="http://www.w3.org/2000/svg" viewBox="0 0 814.3 140.63">
  <defs>
    <style>
      .cls-1 {
        fill: none;
      }

      .cls-1, .cls-2 {
        stroke: #fff;
        stroke-linecap: round;
        stroke-linejoin: bevel;
        stroke-width: 3px;
      }

      .cls-3, .cls-2 {
        fill: #fff;
      }

      .cls-4 {
        fill: #5b6bf8;
      }
    </style>
  </defs>
  <g id="Export_copy_2" data-name="Export copy 2">
    <g id="Layer_8_copy_3" data-name="Layer 8 copy 3">
      <g id="Layer_9_copy_4" data-name="Layer 9 copy 4">
        <g id="Layer_4_copy_4" data-name="Layer 4 copy 4">
          <rect class="cls-4" width="129.15" height="129.15" rx="16.34" ry="16.34"/>
        </g>
        <g id="Layer_5_copy_4" data-name="Layer 5 copy 4">
          <path class="cls-1" d="M19.2,90.35s16.56-51.44,31.68-51.55c15.27-.11,17.53,50.44,32.76,51.55,14.43,1.05,26.31-51.55,26.31-51.55"/>
        </g>
        <g id="Layer_6_copy_5" data-name="Layer 6 copy 5">
          <circle class="cls-2" cx="19.71" cy="89.23" r="3.11"/>
        </g>
        <g id="Layer_6_copy_5-2" data-name="Layer 6 copy 5">
          <circle class="cls-2" cx="109.67" cy="39.3" r="3.11"/>
        </g>
      </g>
      <g>
        <path class="cls-3" d="M172.38,21.5s-.02,0-.03,0h.07s-.02,0-.04,0Z"/>
        <path class="cls-3" d="M317.65,140.63s.03,0,.04,0h-.06s.01,0,.02,0Z"/>
        <path class="cls-3" d="M167.75,23.37c-1.06,1.25-1.59,3.11-1.59,5.6v80.52c0,2.12.53,3.76,1.59,4.91,1.06,1.15,2.61,1.73,4.63,1.73,2.21,0,3.83-.58,4.84-1.73,1.01-1.15,1.52-2.79,1.52-4.91v-17.43l6.23-6.09,25.46,26.43c1.29,1.2,2.54,2.14,3.74,2.84,1.2.69,2.35.94,3.46.76,1.11-.19,2.12-.79,3.04-1.8.83-.92,1.31-1.91,1.45-2.98.14-1.06-.05-2.17-.55-3.32-.51-1.15-1.27-2.24-2.28-3.25l-24.87-26.84-3.08,3.04v-6.36l3.08,3.32,20.58-20.34c1.11-1.2,1.84-2.35,2.21-3.46.37-1.11.42-2.17.14-3.18-.28-1.01-.78-1.89-1.52-2.63-1.57-1.57-3.25-2.05-5.05-1.45-1.8.6-3.3,1.55-4.5,2.84l-27.53,26.84V28.98c0-2.49-.53-4.36-1.59-5.6-1.06-1.24-2.64-1.86-4.74-1.87h-.07c-2.01,0-3.55.63-4.6,1.87Z"/>
        <path class="cls-3" d="M167.75,23.37c-1.06,1.25-1.59,3.11-1.59,5.6v80.52c0,2.12.53,3.76,1.59,4.91,1.06,1.15,2.61,1.73,4.63,1.73,2.21,0,3.83-.58,4.84-1.73,1.01-1.15,1.52-2.79,1.52-4.91v-17.43l6.23-6.09,25.46,26.43c1.29,1.2,2.54,2.14,3.74,2.84,1.2.69,2.35.94,3.46.76,1.11-.19,2.12-.79,3.04-1.8.83-.92,1.31-1.91,1.45-2.98.14-1.06-.05-2.17-.55-3.32-.51-1.15-1.27-2.24-2.28-3.25l-24.87-26.84-3.08,3.04v-6.36l3.08,3.32,20.58-20.34c1.11-1.2,1.84-2.35,2.21-3.46.37-1.11.42-2.17.14-3.18-.28-1.01-.78-1.89-1.52-2.63-1.57-1.57-3.25-2.05-5.05-1.45-1.8.6-3.3,1.55-4.5,2.84l-27.53,26.84V28.98c0-2.49-.53-4.36-1.59-5.6-1.06-1.24-2.64-1.86-4.74-1.87h-.07c-2.01,0-3.55.63-4.6,1.87Z"/>
        <polygon class="cls-3" points="191.34 80.86 194.41 77.82 191.34 74.5 191.34 80.86"/>
        <polygon class="cls-3" points="191.34 80.86 194.41 77.82 191.34 74.5 191.34 80.86"/>
        <path class="cls-3" d="M283.76,73.94c-.73.22-1.49.41-2.24.6.01.4.04.79.03,1.2l2.21-1.8Z"/>
        <path class="cls-3" d="M283.76,73.94c-.73.22-1.49.41-2.24.6.01.4.04.79.03,1.2l2.21-1.8Z"/>
        <path class="cls-3" d="M278.64,50.56c-4.61-2.67-10.05-4.01-16.33-4.01-4.8,0-9.2.83-13.21,2.49-4.01,1.66-7.52,4.06-10.52,7.19-3,3.14-5.31,6.83-6.92,11.07-1.62,4.24-2.42,8.99-2.42,14.25,0,7.19,1.41,13.4,4.22,18.61,2.81,5.21,6.83,9.22,12.04,12.04,5.21,2.81,11.46,4.22,18.75,4.22,3.87,0,7.72-.6,11.55-1.8,3.83-1.2,7.13-2.81,9.89-4.84,1.29-.83,2.14-1.78,2.56-2.84.42-1.06.48-2.1.21-3.11-.28-1.01-.81-1.84-1.59-2.49-.78-.64-1.71-1.01-2.77-1.11-1.06-.09-2.24.23-3.53.97-2.86,1.85-5.56,3.11-8.09,3.8-2.54.69-5.24,1.04-8.09,1.04-4.52,0-8.49-.88-11.9-2.63-3.41-1.75-6.07-4.45-7.96-8.09-1.23-2.38-2.04-5.19-2.43-8.41-.91.01-1.82.03-2.76.04l.28-9.69h2.47c.28-3.63,1.04-6.84,2.3-9.62,1.52-3.37,3.78-5.97,6.78-7.82,3-1.84,6.71-2.77,11.14-2.77,5.72,0,10.38,1.66,13.97,4.98,3.34,3.09,5.07,7.26,5.23,12.5.76-.19,1.52-.38,2.24-.6l-2.21,1.8c0-.41-.02-.8-.03-1.2-3.46.88-7.2,1.55-11.25,1.96-4.94.51-10.01.76-15.22.76h-12.95c-.06.77-.11,1.55-.12,2.35l-.14,1.8c-.03,1.95.06,3.78.27,5.5,5.7-.08,10.83-.19,15.36-.31,5.26-.14,10.05-.35,14.39-.62,4.33-.28,8.44-.83,12.31-1.66,1.84-.37,3.46-.81,4.84-1.31,1.38-.51,2.44-1.27,3.18-2.28.74-1.01,1.11-2.4,1.11-4.15,0-5.63-1.29-10.7-3.87-15.22-2.58-4.52-6.18-8.12-10.79-10.79Z"/>
        <path class="cls-3" d="M278.64,50.56c-4.61-2.67-10.05-4.01-16.33-4.01-4.8,0-9.2.83-13.21,2.49-4.01,1.66-7.52,4.06-10.52,7.19-3,3.14-5.31,6.83-6.92,11.07-1.62,4.24-2.42,8.99-2.42,14.25,0,7.19,1.41,13.4,4.22,18.61,2.81,5.21,6.83,9.22,12.04,12.04,5.21,2.81,11.46,4.22,18.75,4.22,3.87,0,7.72-.6,11.55-1.8,3.83-1.2,7.13-2.81,9.89-4.84,1.29-.83,2.14-1.78,2.56-2.84.42-1.06.48-2.1.21-3.11-.28-1.01-.81-1.84-1.59-2.49-.78-.64-1.71-1.01-2.77-1.11-1.06-.09-2.24.23-3.53.97-2.86,1.85-5.56,3.11-8.09,3.8-2.54.69-5.24,1.04-8.09,1.04-4.52,0-8.49-.88-11.9-2.63-3.41-1.75-6.07-4.45-7.96-8.09-1.23-2.38-2.04-5.19-2.43-8.41-.91.01-1.82.03-2.76.04l.28-9.69h2.47c.28-3.63,1.04-6.84,2.3-9.62,1.52-3.37,3.78-5.97,6.78-7.82,3-1.84,6.71-2.77,11.14-2.77,5.72,0,10.38,1.66,13.97,4.98,3.34,3.09,5.07,7.26,5.23,12.5.76-.19,1.52-.38,2.24-.6l-2.21,1.8c0-.41-.02-.8-.03-1.2-3.46.88-7.2,1.55-11.25,1.96-4.94.51-10.01.76-15.22.76h-12.95c-.06.77-.11,1.55-.12,2.35l-.14,1.8c-.03,1.95.06,3.78.27,5.5,5.7-.08,10.83-.19,15.36-.31,5.26-.14,10.05-.35,14.39-.62,4.33-.28,8.44-.83,12.31-1.66,1.84-.37,3.46-.81,4.84-1.31,1.38-.51,2.44-1.27,3.18-2.28.74-1.01,1.11-2.4,1.11-4.15,0-5.63-1.29-10.7-3.87-15.22-2.58-4.52-6.18-8.12-10.79-10.79Z"/>
        <path class="cls-3" d="M241.97,79.61c.02-.81.06-1.58.12-2.35h-2.47l-.28,9.69c.94-.01,1.85-.03,2.76-.04-.21-1.71-.3-3.54-.27-5.5l.14-1.8Z"/>
        <path class="cls-3" d="M241.97,79.61c.02-.81.06-1.58.12-2.35h-2.47l-.28,9.69c.94-.01,1.85-.03,2.76-.04-.21-1.71-.3-3.54-.27-5.5l.14-1.8Z"/>
        <polygon class="cls-3" points="328.72 110.88 327.5 113.6 328.72 116.42 328.72 110.88"/>
        <polygon class="cls-3" points="328.72 110.88 327.5 113.6 328.72 116.42 328.72 110.88"/>
        <path class="cls-3" d="M327.55,137.38c1.52-1.15,2.93-2.68,4.22-4.57,1.29-1.89,2.54-4.22,3.74-6.99l30.44-70.15c.74-1.57,1.01-3.02.83-4.36-.19-1.34-.74-2.42-1.66-3.25-.92-.83-2.17-1.24-3.74-1.24-1.85,0-3.28.37-4.29,1.11-1.02.74-1.89,2.08-2.63,4.01l-19.91,48.27,1.92,4.73h-3.87l1.95-4.73-19.66-48.27c-.74-1.94-1.59-3.27-2.56-4.01-.97-.74-2.28-1.11-3.94-1.11-1.94,0-3.44.41-4.5,1.24-1.06.83-1.71,1.92-1.94,3.25-.23,1.34-.02,2.84.62,4.5l24.93,57.78,1.22-2.71v5.53l-1.22-2.82-4.18,9.32c-1.02,2.3-2.01,3.96-2.97,4.98-.97,1.01-1.96,1.52-2.97,1.52s-2.05.18-3.11.55c-1.06.37-1.89.94-2.49,1.73-.6.78-.95,1.78-1.04,2.98-.09,1.75.51,3.18,1.8,4.29,1.29,1.1,2.99,1.66,5.1,1.66h.06c1.83,0,3.55-.26,5.15-.76,1.61-.51,3.18-1.34,4.7-2.49Z"/>
        <path class="cls-3" d="M327.55,137.38c1.52-1.15,2.93-2.68,4.22-4.57,1.29-1.89,2.54-4.22,3.74-6.99l30.44-70.15c.74-1.57,1.01-3.02.83-4.36-.19-1.34-.74-2.42-1.66-3.25-.92-.83-2.17-1.24-3.74-1.24-1.85,0-3.28.37-4.29,1.11-1.02.74-1.89,2.08-2.63,4.01l-19.91,48.27,1.92,4.73h-3.87l1.95-4.73-19.66-48.27c-.74-1.94-1.59-3.27-2.56-4.01-.97-.74-2.28-1.11-3.94-1.11-1.94,0-3.44.41-4.5,1.24-1.06.83-1.71,1.92-1.94,3.25-.23,1.34-.02,2.84.62,4.5l24.93,57.78,1.22-2.71v5.53l-1.22-2.82-4.18,9.32c-1.02,2.3-2.01,3.96-2.97,4.98-.97,1.01-1.96,1.52-2.97,1.52s-2.05.18-3.11.55c-1.06.37-1.89.94-2.49,1.73-.6.78-.95,1.78-1.04,2.98-.09,1.75.51,3.18,1.8,4.29,1.29,1.1,2.99,1.66,5.1,1.66h.06c1.83,0,3.55-.26,5.15-.76,1.61-.51,3.18-1.34,4.7-2.49Z"/>
        <polygon class="cls-3" points="336.47 104.93 334.55 100.21 332.6 104.93 336.47 104.93"/>
        <polygon class="cls-3" points="336.47 104.93 334.55 100.21 332.6 104.93 336.47 104.93"/>
        <polygon class="cls-3" points="407.45 104.66 405.8 99.53 404.13 104.66 407.45 104.66"/>
        <polygon class="cls-3" points="407.45 104.66 405.8 99.53 404.13 104.66 407.45 104.66"/>
        <polygon class="cls-3" points="451.72 104.66 450.14 99.73 448.54 104.66 451.72 104.66"/>
        <polygon class="cls-3" points="451.72 104.66 450.14 99.73 448.54 104.66 451.72 104.66"/>
        <polygon class="cls-3" points="424.46 56.65 427.73 66.46 430.97 56.65 424.46 56.65"/>
        <polygon class="cls-3" points="424.46 56.65 427.73 66.46 430.97 56.65 424.46 56.65"/>
        <path class="cls-3" d="M476,48.07c-.88-.83-2.19-1.24-3.94-1.24-1.11,0-2.31.32-3.6.97-1.29.65-2.21,1.98-2.77,4.01l-15.56,47.93,1.58,4.93h-3.18l1.6-4.93-15.43-48.06c-.46-1.66-1.27-2.88-2.42-3.67-1.15-.78-2.56-1.18-4.22-1.18-1.57,0-2.91.39-4.01,1.18-1.11.78-1.98,2.01-2.63,3.67l-15.62,47.86,1.65,5.13h-3.32l1.67-5.13-15.23-47.45c-.55-2.12-1.45-3.53-2.7-4.22s-2.42-1.04-3.53-1.04c-2.49,0-4.27.81-5.33,2.42-1.06,1.61-1.13,3.8-.21,6.57l18.68,54.51c.74,2.12,1.8,3.62,3.18,4.5,1.38.88,2.95,1.31,4.7,1.31,1.94,0,3.57-.48,4.91-1.45,1.34-.97,2.33-2.42,2.98-4.36l14.47-43.87-3.26-9.82h6.5l-3.24,9.82,14.58,43.87c.64,1.94,1.68,3.39,3.11,4.36,1.43.97,3.02,1.45,4.77,1.45s3.34-.46,4.77-1.38c1.43-.92,2.47-2.4,3.11-4.43l18.68-54.51c.55-1.57.78-3.04.69-4.43-.09-1.38-.58-2.49-1.45-3.32Z"/>
        <path class="cls-3" d="M476,48.07c-.88-.83-2.19-1.24-3.94-1.24-1.11,0-2.31.32-3.6.97-1.29.65-2.21,1.98-2.77,4.01l-15.56,47.93,1.58,4.93h-3.18l1.6-4.93-15.43-48.06c-.46-1.66-1.27-2.88-2.42-3.67-1.15-.78-2.56-1.18-4.22-1.18-1.57,0-2.91.39-4.01,1.18-1.11.78-1.98,2.01-2.63,3.67l-15.62,47.86,1.65,5.13h-3.32l1.67-5.13-15.23-47.45c-.55-2.12-1.45-3.53-2.7-4.22s-2.42-1.04-3.53-1.04c-2.49,0-4.27.81-5.33,2.42-1.06,1.61-1.13,3.8-.21,6.57l18.68,54.51c.74,2.12,1.8,3.62,3.18,4.5,1.38.88,2.95,1.31,4.7,1.31,1.94,0,3.57-.48,4.91-1.45,1.34-.97,2.33-2.42,2.98-4.36l14.47-43.87-3.26-9.82h6.5l-3.24,9.82,14.58,43.87c.64,1.94,1.68,3.39,3.11,4.36,1.43.97,3.02,1.45,4.77,1.45s3.34-.46,4.77-1.38c1.43-.92,2.47-2.4,3.11-4.43l18.68-54.51c.55-1.57.78-3.04.69-4.43-.09-1.38-.58-2.49-1.45-3.32Z"/>
        <path class="cls-3" d="M535.84,50.56c-4.61-2.67-10.05-4.01-16.33-4.01-4.8,0-9.2.83-13.21,2.49-4.01,1.66-7.52,4.06-10.51,7.19-3,3.14-5.31,6.83-6.92,11.07-1.62,4.24-2.42,8.99-2.42,14.25,0,7.19,1.41,13.4,4.22,18.61,2.81,5.21,6.82,9.22,12.04,12.04,5.21,2.81,11.46,4.22,18.75,4.22,3.87,0,7.72-.6,11.55-1.8,3.83-1.2,7.13-2.81,9.89-4.84,1.29-.83,2.14-1.78,2.56-2.84.42-1.06.48-2.1.21-3.11-.28-1.01-.81-1.84-1.59-2.49-.78-.64-1.71-1.01-2.77-1.11-1.06-.09-2.24.23-3.53.97-2.86,1.85-5.56,3.11-8.09,3.8-2.54.69-5.24,1.04-8.09,1.04-4.52,0-8.49-.88-11.9-2.63-3.41-1.75-6.07-4.45-7.96-8.09-1.23-2.38-2.04-5.19-2.43-8.41-.91.01-1.82.03-2.76.04l.28-9.69h2.47c.28-3.63,1.04-6.84,2.3-9.62,1.52-3.37,3.78-5.97,6.78-7.82,3-1.84,6.71-2.77,11.14-2.77,5.72,0,10.38,1.66,13.97,4.98,3.34,3.09,5.07,7.26,5.23,12.5.76-.19,1.51-.38,2.24-.6l-2.21,1.8c0-.41-.02-.8-.03-1.2-3.46.88-7.2,1.55-11.25,1.96-4.94.51-10.01.76-15.22.76h-12.95c-.06.77-.11,1.55-.12,2.35l-.14,1.8c-.03,1.95.06,3.78.27,5.5,5.7-.08,10.83-.19,15.36-.31,5.26-.14,10.05-.35,14.39-.62,4.33-.28,8.44-.83,12.31-1.66,1.84-.37,3.46-.81,4.84-1.31,1.38-.51,2.44-1.27,3.18-2.28.74-1.01,1.11-2.4,1.11-4.15,0-5.63-1.29-10.7-3.87-15.22-2.58-4.52-6.18-8.12-10.79-10.79Z"/>
        <path class="cls-3" d="M535.84,50.56c-4.61-2.67-10.05-4.01-16.33-4.01-4.8,0-9.2.83-13.21,2.49-4.01,1.66-7.52,4.06-10.51,7.19-3,3.14-5.31,6.83-6.92,11.07-1.62,4.24-2.42,8.99-2.42,14.25,0,7.19,1.41,13.4,4.22,18.61,2.81,5.21,6.82,9.22,12.04,12.04,5.21,2.81,11.46,4.22,18.75,4.22,3.87,0,7.72-.6,11.55-1.8,3.83-1.2,7.13-2.81,9.89-4.84,1.29-.83,2.14-1.78,2.56-2.84.42-1.06.48-2.1.21-3.11-.28-1.01-.81-1.84-1.59-2.49-.78-.64-1.71-1.01-2.77-1.11-1.06-.09-2.24.23-3.53.97-2.86,1.85-5.56,3.11-8.09,3.8-2.54.69-5.24,1.04-8.09,1.04-4.52,0-8.49-.88-11.9-2.63-3.41-1.75-6.07-4.45-7.96-8.09-1.23-2.38-2.04-5.19-2.43-8.41-.91.01-1.82.03-2.76.04l.28-9.69h2.47c.28-3.63,1.04-6.84,2.3-9.62,1.52-3.37,3.78-5.97,6.78-7.82,3-1.84,6.71-2.77,11.14-2.77,5.72,0,10.38,1.66,13.97,4.98,3.34,3.09,5.07,7.26,5.23,12.5.76-.19,1.51-.38,2.24-.6l-2.21,1.8c0-.41-.02-.8-.03-1.2-3.46.88-7.2,1.55-11.25,1.96-4.94.51-10.01.76-15.22.76h-12.95c-.06.77-.11,1.55-.12,2.35l-.14,1.8c-.03,1.95.06,3.78.27,5.5,5.7-.08,10.83-.19,15.36-.31,5.26-.14,10.05-.35,14.39-.62,4.33-.28,8.44-.83,12.31-1.66,1.84-.37,3.46-.81,4.84-1.31,1.38-.51,2.44-1.27,3.18-2.28.74-1.01,1.11-2.4,1.11-4.15,0-5.63-1.29-10.7-3.87-15.22-2.58-4.52-6.18-8.12-10.79-10.79Z"/>
        <path class="cls-3" d="M499.18,79.61c.02-.81.06-1.58.12-2.35h-2.47l-.28,9.69c.94-.01,1.85-.03,2.76-.04-.21-1.71-.3-3.54-.27-5.5l.14-1.8Z"/>
        <path class="cls-3" d="M499.18,79.61c.02-.81.06-1.58.12-2.35h-2.47l-.28,9.69c.94-.01,1.85-.03,2.76-.04-.21-1.71-.3-3.54-.27-5.5l.14-1.8Z"/>
        <path class="cls-3" d="M540.96,73.94c-.73.22-1.49.41-2.24.6.01.4.04.79.03,1.2l2.21-1.8Z"/>
        <path class="cls-3" d="M540.96,73.94c-.73.22-1.49.41-2.24.6.01.4.04.79.03,1.2l2.21-1.8Z"/>
        <polygon class="cls-3" points="605.44 88.47 605.85 81.55 603.91 80.55 603.91 87.79 605.44 88.47"/>
        <polygon class="cls-3" points="605.44 88.47 605.85 81.55 603.91 80.55 603.91 87.79 605.44 88.47"/>
        <path class="cls-3" d="M604.19,102.86v3.79c.53-1.15.95-2.41,1.25-3.79h-1.25Z"/>
        <path class="cls-3" d="M604.19,102.86v3.79c.53-1.15.95-2.41,1.25-3.79h-1.25Z"/>
        <path class="cls-3" d="M604.33,49.18c-3.97-1.94-8.81-2.91-14.53-2.91-1.94-.09-4.22.12-6.85.62-2.63.51-5.31,1.38-8.02,2.63-2.72,1.24-5.24,2.93-7.54,5.05-1.2.92-1.96,1.96-2.28,3.11-.32,1.15-.32,2.24,0,3.25.32,1.02.9,1.85,1.73,2.49.83.65,1.82.97,2.98.97s2.37-.51,3.67-1.52c2.03-1.75,4.03-3.11,6.02-4.08,1.98-.97,3.83-1.64,5.53-2.01,1.71-.37,3.2-.55,4.5-.55,4.52,0,8.05,1.25,10.58,3.74,2.54,2.49,3.8,6.41,3.8,11.76v8.82l1.94,1-.42,6.92-1.52-.68v3.17c0,2.77-.55,5.17-1.66,7.19-1.11,2.03-2.56,3.71-4.36,5.05-1.8,1.34-3.76,2.31-5.88,2.9-2.12.6-4.11.9-5.95.9-4.34,0-7.75-1.13-10.24-3.39-2.49-2.26-3.74-5.14-3.74-8.65,0-2.49.71-4.66,2.14-6.5,1.43-1.84,3.44-3.25,6.02-4.22,2.58-.97,5.6-1.34,9.06-1.11,3.46.23,7.17,1.27,11.14,3.11l3.46,1.54v-7.24l-2.63-1.35c-4.89-2.67-9.73-4.15-14.53-4.43-4.8-.28-9.16.42-13.07,2.08-3.92,1.66-7.1,4.08-9.55,7.26-2.44,3.18-3.67,6.85-3.67,11-.09,3.78.81,7.29,2.7,10.52,1.89,3.23,4.59,5.83,8.09,7.82,3.5,1.98,7.61,2.97,12.31,2.97,3.69,0,7.01-.41,9.96-1.24,2.95-.83,5.49-2.24,7.61-4.22,1.26-1.18,2.27-2.62,3.04-4.3v-3.79h1.25c-.3,1.38-.72,2.64-1.25,3.79v3.54c0,1.2.23,2.26.69,3.18.46.92,1.15,1.62,2.08,2.08.92.46,2.08.69,3.46.69,1.94,0,3.41-.55,4.43-1.66,1.01-1.11,1.52-2.58,1.52-4.43v-36.8c0-6.18-1.02-11.25-3.04-15.22-2.03-3.96-5.03-6.92-8.99-8.85Z"/>
        <path class="cls-3" d="M604.33,49.18c-3.97-1.94-8.81-2.91-14.53-2.91-1.94-.09-4.22.12-6.85.62-2.63.51-5.31,1.38-8.02,2.63-2.72,1.24-5.24,2.93-7.54,5.05-1.2.92-1.96,1.96-2.28,3.11-.32,1.15-.32,2.24,0,3.25.32,1.02.9,1.85,1.73,2.49.83.65,1.82.97,2.98.97s2.37-.51,3.67-1.52c2.03-1.75,4.03-3.11,6.02-4.08,1.98-.97,3.83-1.64,5.53-2.01,1.71-.37,3.2-.55,4.5-.55,4.52,0,8.05,1.25,10.58,3.74,2.54,2.49,3.8,6.41,3.8,11.76v8.82l1.94,1-.42,6.92-1.52-.68v3.17c0,2.77-.55,5.17-1.66,7.19-1.11,2.03-2.56,3.71-4.36,5.05-1.8,1.34-3.76,2.31-5.88,2.9-2.12.6-4.11.9-5.95.9-4.34,0-7.75-1.13-10.24-3.39-2.49-2.26-3.74-5.14-3.74-8.65,0-2.49.71-4.66,2.14-6.5,1.43-1.84,3.44-3.25,6.02-4.22,2.58-.97,5.6-1.34,9.06-1.11,3.46.23,7.17,1.27,11.14,3.11l3.46,1.54v-7.24l-2.63-1.35c-4.89-2.67-9.73-4.15-14.53-4.43-4.8-.28-9.16.42-13.07,2.08-3.92,1.66-7.1,4.08-9.55,7.26-2.44,3.18-3.67,6.85-3.67,11-.09,3.78.81,7.29,2.7,10.52,1.89,3.23,4.59,5.83,8.09,7.82,3.5,1.98,7.61,2.97,12.31,2.97,3.69,0,7.01-.41,9.96-1.24,2.95-.83,5.49-2.24,7.61-4.22,1.26-1.18,2.27-2.62,3.04-4.3v-3.79h1.25c-.3,1.38-.72,2.64-1.25,3.79v3.54c0,1.2.23,2.26.69,3.18.46.92,1.15,1.62,2.08,2.08.92.46,2.08.69,3.46.69,1.94,0,3.41-.55,4.43-1.66,1.01-1.11,1.52-2.58,1.52-4.43v-36.8c0-6.18-1.02-11.25-3.04-15.22-2.03-3.96-5.03-6.92-8.99-8.85Z"/>
        <path class="cls-3" d="M690.39,48.07c-.92-.83-2.17-1.24-3.74-1.24-1.85,0-3.25.37-4.22,1.11-.97.74-1.87,2.08-2.7,4.01l-19.91,48.14,1.92,4.71h-3.87l1.95-4.71-19.66-48.14c-.74-1.94-1.59-3.27-2.56-4.01-.97-.74-2.28-1.11-3.94-1.11-1.94,0-3.44.41-4.5,1.24-1.06.83-1.68,1.92-1.87,3.25-.19,1.34.05,2.84.69,4.5l23.38,54.37c.92,2.03,2.05,3.53,3.39,4.5,1.34.97,2.93,1.45,4.77,1.45s3.46-.48,4.84-1.45c1.38-.97,2.49-2.47,3.32-4.5l23.52-54.51c.74-1.57,1.01-3.02.83-4.36-.19-1.34-.74-2.42-1.66-3.25Z"/>
        <path class="cls-3" d="M690.39,48.07c-.92-.83-2.17-1.24-3.74-1.24-1.85,0-3.25.37-4.22,1.11-.97.74-1.87,2.08-2.7,4.01l-19.91,48.14,1.92,4.71h-3.87l1.95-4.71-19.66-48.14c-.74-1.94-1.59-3.27-2.56-4.01-.97-.74-2.28-1.11-3.94-1.11-1.94,0-3.44.41-4.5,1.24-1.06.83-1.68,1.92-1.87,3.25-.19,1.34.05,2.84.69,4.5l23.38,54.37c.92,2.03,2.05,3.53,3.39,4.5,1.34.97,2.93,1.45,4.77,1.45s3.46-.48,4.84-1.45c1.38-.97,2.49-2.47,3.32-4.5l23.52-54.51c.74-1.57,1.01-3.02.83-4.36-.19-1.34-.74-2.42-1.66-3.25Z"/>
        <polygon class="cls-3" points="661.75 104.8 659.82 100.08 657.87 104.8 661.75 104.8"/>
        <polygon class="cls-3" points="661.75 104.8 659.82 100.08 657.87 104.8 661.75 104.8"/>
        <path class="cls-3" d="M749.33,50.56c-4.61-2.67-10.05-4.01-16.33-4.01-4.8,0-9.2.83-13.21,2.49-4.01,1.66-7.52,4.06-10.51,7.19-3,3.14-5.31,6.83-6.92,11.07-1.62,4.24-2.42,8.99-2.42,14.25,0,7.19,1.41,13.4,4.22,18.61,2.81,5.21,6.82,9.22,12.04,12.04,5.21,2.81,11.46,4.22,18.75,4.22,3.87,0,7.72-.6,11.55-1.8,3.83-1.2,7.13-2.81,9.89-4.84,1.29-.83,2.14-1.78,2.56-2.84.42-1.06.48-2.1.21-3.11-.28-1.01-.81-1.84-1.59-2.49-.78-.64-1.71-1.01-2.77-1.11-1.06-.09-2.24.23-3.53.97-2.86,1.85-5.56,3.11-8.09,3.8-2.54.69-5.24,1.04-8.09,1.04-4.52,0-8.49-.88-11.9-2.63-3.41-1.75-6.07-4.45-7.96-8.09-1.23-2.38-2.04-5.19-2.43-8.41-.91.01-1.82.03-2.76.04l.28-9.69h2.47c.28-3.63,1.04-6.84,2.3-9.62,1.52-3.37,3.78-5.97,6.78-7.82,3-1.84,6.71-2.77,11.14-2.77,5.72,0,10.38,1.66,13.97,4.98,3.34,3.09,5.07,7.26,5.23,12.5.76-.19,1.51-.38,2.24-.6l-2.21,1.8c0-.41-.02-.8-.03-1.2-3.46.88-7.2,1.55-11.25,1.96-4.94.51-10.01.76-15.22.76h-12.95c-.06.77-.11,1.55-.12,2.35l-.14,1.8c-.03,1.95.06,3.78.27,5.5,5.7-.08,10.83-.19,15.36-.31,5.26-.14,10.05-.35,14.39-.62,4.33-.28,8.44-.83,12.31-1.66,1.84-.37,3.46-.81,4.84-1.31,1.38-.51,2.44-1.27,3.18-2.28.74-1.01,1.11-2.4,1.11-4.15,0-5.63-1.29-10.7-3.87-15.22-2.58-4.52-6.18-8.12-10.79-10.79Z"/>
        <path class="cls-3" d="M749.33,50.56c-4.61-2.67-10.05-4.01-16.33-4.01-4.8,0-9.2.83-13.21,2.49-4.01,1.66-7.52,4.06-10.51,7.19-3,3.14-5.31,6.83-6.92,11.07-1.62,4.24-2.42,8.99-2.42,14.25,0,7.19,1.41,13.4,4.22,18.61,2.81,5.21,6.82,9.22,12.04,12.04,5.21,2.81,11.46,4.22,18.75,4.22,3.87,0,7.72-.6,11.55-1.8,3.83-1.2,7.13-2.81,9.89-4.84,1.29-.83,2.14-1.78,2.56-2.84.42-1.06.48-2.1.21-3.11-.28-1.01-.81-1.84-1.59-2.49-.78-.64-1.71-1.01-2.77-1.11-1.06-.09-2.24.23-3.53.97-2.86,1.85-5.56,3.11-8.09,3.8-2.54.69-5.24,1.04-8.09,1.04-4.52,0-8.49-.88-11.9-2.63-3.41-1.75-6.07-4.45-7.96-8.09-1.23-2.38-2.04-5.19-2.43-8.41-.91.01-1.82.03-2.76.04l.28-9.69h2.47c.28-3.63,1.04-6.84,2.3-9.62,1.52-3.37,3.78-5.97,6.78-7.82,3-1.84,6.71-2.77,11.14-2.77,5.72,0,10.38,1.66,13.97,4.98,3.34,3.09,5.07,7.26,5.23,12.5.76-.19,1.51-.38,2.24-.6l-2.21,1.8c0-.41-.02-.8-.03-1.2-3.46.88-7.2,1.55-11.25,1.96-4.94.51-10.01.76-15.22.76h-12.95c-.06.77-.11,1.55-.12,2.35l-.14,1.8c-.03,1.95.06,3.78.27,5.5,5.7-.08,10.83-.19,15.36-.31,5.26-.14,10.05-.35,14.39-.62,4.33-.28,8.44-.83,12.31-1.66,1.84-.37,3.46-.81,4.84-1.31,1.38-.51,2.44-1.27,3.18-2.28.74-1.01,1.11-2.4,1.11-4.15,0-5.63-1.29-10.7-3.87-15.22-2.58-4.52-6.18-8.12-10.79-10.79Z"/>
        <path class="cls-3" d="M754.45,73.94c-.73.22-1.49.41-2.24.6.01.4.04.79.03,1.2l2.21-1.8Z"/>
        <path class="cls-3" d="M754.45,73.94c-.73.22-1.49.41-2.24.6.01.4.04.79.03,1.2l2.21-1.8Z"/>
        <path class="cls-3" d="M712.66,79.61c.02-.81.06-1.58.12-2.35h-2.47l-.28,9.69c.94-.01,1.85-.03,2.76-.04-.21-1.71-.3-3.54-.27-5.5l.14-1.8Z"/>
        <path class="cls-3" d="M712.66,79.61c.02-.81.06-1.58.12-2.35h-2.47l-.28,9.69c.94-.01,1.85-.03,2.76-.04-.21-1.71-.3-3.54-.27-5.5l.14-1.8Z"/>
        <path class="cls-3" d="M812.97,48.48c-.74-.74-1.64-1.27-2.7-1.59-1.06-.32-2.19-.44-3.39-.35-3.78.19-6.87,1.13-9.27,2.84-2.4,1.71-4.31,3.87-5.74,6.5-.8,1.46-1.51,3.03-2.14,4.68v4.11h-1.38c.41-1.43.88-2.79,1.38-4.11v-6.41c0-2.21-.58-4.03-1.73-5.46-1.15-1.43-2.75-2.14-4.77-2.14-1.57,0-2.95.58-4.15,1.73-1.2,1.15-1.8,2.84-1.8,5.05v56.03c0,2.12.55,3.78,1.66,4.98,1.11,1.2,2.54,1.8,4.29,1.8,2.21,0,3.87-.6,4.98-1.8,1.11-1.2,1.66-2.86,1.66-4.98v-31.55c0-3.87.44-7.19,1.31-9.96.88-2.77,2.54-4.96,4.98-6.57,2.44-1.61,5.93-2.61,10.45-2.98l2.21-.28c1.2-.18,2.24-.6,3.11-1.24.88-.64,1.52-1.43,1.94-2.35.41-.92.53-1.89.35-2.91-.09-1.29-.51-2.3-1.25-3.04Z"/>
        <path class="cls-3" d="M812.97,48.48c-.74-.74-1.64-1.27-2.7-1.59-1.06-.32-2.19-.44-3.39-.35-3.78.19-6.87,1.13-9.27,2.84-2.4,1.71-4.31,3.87-5.74,6.5-.8,1.46-1.51,3.03-2.14,4.68v4.11h-1.38c.41-1.43.88-2.79,1.38-4.11v-6.41c0-2.21-.58-4.03-1.73-5.46-1.15-1.43-2.75-2.14-4.77-2.14-1.57,0-2.95.58-4.15,1.73-1.2,1.15-1.8,2.84-1.8,5.05v56.03c0,2.12.55,3.78,1.66,4.98,1.11,1.2,2.54,1.8,4.29,1.8,2.21,0,3.87-.6,4.98-1.8,1.11-1.2,1.66-2.86,1.66-4.98v-31.55c0-3.87.44-7.19,1.31-9.96.88-2.77,2.54-4.96,4.98-6.57,2.44-1.61,5.93-2.61,10.45-2.98l2.21-.28c1.2-.18,2.24-.6,3.11-1.24.88-.64,1.52-1.43,1.94-2.35.41-.92.53-1.89.35-2.91-.09-1.29-.51-2.3-1.25-3.04Z"/>
        <path class="cls-3" d="M789.72,64.67v-4.11c-.51,1.31-.98,2.68-1.38,4.11h1.38Z"/>
        <path class="cls-3" d="M789.72,64.67v-4.11c-.51,1.31-.98,2.68-1.38,4.11h1.38Z"/>
      </g>
    </g>
  </g>
</svg>